<svg xmlns="http://www.w3.org/2000/svg" xmlns:xlink="http://www.w3.org/1999/xlink" viewBox="0 0 93.25 116.95"><defs><radialGradient id="c" xlink:href="#a" gradientUnits="userSpaceOnUse" cy="62.816" cx="483.76" gradientTransform="matrix(1.5103 -.50471 .3286 .98332 -267.53 241.51)" r="16.454"/><radialGradient id="d" xlink:href="#a" gradientUnits="userSpaceOnUse" cy="58.568" cx="461.26" gradientTransform="matrix(1 0 0 .67997 0 18.561)" r="11.742"/><radialGradient id="e" xlink:href="#a" gradientUnits="userSpaceOnUse" cy="73.18" cx="501.21" gradientTransform="matrix(.99276 -.12016 .16375 1.353 -8.352 33.638)" r="9.509"/><radialGradient id="f" xlink:href="#a" gradientUnits="userSpaceOnUse" cy="80.231" cx="521.68" gradientTransform="matrix(.97807 -.20829 .2336 1.0969 -7.3 99.71)" r="11.666"/><radialGradient id="g" xlink:href="#a" gradientUnits="userSpaceOnUse" cy="69.405" cx="475.44" gradientTransform="matrix(1 0 0 1.0531 0 -3.685)" r="10.42"/><radialGradient id="h" xlink:href="#a" gradientUnits="userSpaceOnUse" cy="72.026" cx="487.26" gradientTransform="matrix(1 0 0 1.1741 0 -11.97)" r="6.193"/><radialGradient id="i" xlink:href="#a" gradientUnits="userSpaceOnUse" cy="74.034" cx="424.97" gradientTransform="matrix(1.7231 .02191 -.01286 1.0116 -306.33 -10.119)" r="12.563"/><radialGradient id="j" xlink:href="#a" gradientUnits="userSpaceOnUse" cy="77.521" cx="461.47" gradientTransform="matrix(.99658 -.08261 .15722 1.8966 -10.61 -30.463)" r="10.506"/><radialGradient id="k" xlink:href="#a" gradientUnits="userSpaceOnUse" cy="90.778" cx="533.42" gradientTransform="matrix(1 0 0 1.0077 0 -.699)" r="18.834"/><radialGradient id="l" xlink:href="#a" gradientUnits="userSpaceOnUse" cy="71.349" cx="420.21" gradientTransform="matrix(1 0 0 1.2579 0 -17.782)" r="5.251"/><radialGradient id="m" xlink:href="#a" gradientUnits="userSpaceOnUse" cy="85.86" cx="501.76" gradientTransform="matrix(1 0 0 .9536 0 3.984)" r="11.86"/><radialGradient id="n" xlink:href="#a" gradientUnits="userSpaceOnUse" cy="85.777" cx="465.8" gradientTransform="matrix(1.7955 -.0442 .01947 .79123 -372.21 37.057)" r="8.809"/><radialGradient id="o" xlink:href="#a" gradientUnits="userSpaceOnUse" cy="79.461" cx="490.47" gradientTransform="matrix(1 0 0 1.4646 0 -38.312)" r="5.031"/><radialGradient id="p" xlink:href="#a" gradientUnits="userSpaceOnUse" cy="105.96" cx="546.38" gradientTransform="matrix(1 0 0 1.2457 0 -24.732)" r="13.037"/><radialGradient id="q" xlink:href="#a" gradientUnits="userSpaceOnUse" cy="88.575" cx="514.77" gradientTransform="matrix(1 0 0 .70841 0 24.808)" r="5.669"/><radialGradient id="r" xlink:href="#a" gradientUnits="userSpaceOnUse" cy="95.065" cx="432.34" gradientTransform="matrix(.9939 -.11024 .12241 1.1036 -9.001 36.004)" r="17.991"/><radialGradient id="s" xlink:href="#a" gradientUnits="userSpaceOnUse" cy="85.693" cx="413.34" gradientTransform="matrix(.95655 -.29158 .90387 2.9652 -59.493 -46.212)" r="3.655"/><radialGradient id="t" xlink:href="#a" gradientUnits="userSpaceOnUse" cy="83.163" cx="449.16" gradientTransform="matrix(1 0 0 .84949 0 12.517)" r="2.419"/><radialGradient id="u" xlink:href="#a" gradientUnits="userSpaceOnUse" cy="90.387" cx="481.45" gradientTransform="matrix(-.02263 -.99974 2.3842 -.05396 276.84 576.45)" r="8.082"/><radialGradient id="v" xlink:href="#a" gradientUnits="userSpaceOnUse" cy="88.706" cx="463.39" gradientTransform="matrix(1 0 0 .89947 0 8.918)" r="3.652"/><radialGradient id="w" xlink:href="#a" gradientUnits="userSpaceOnUse" cy="91.537" cx="410.03" gradientTransform="matrix(1 0 0 .63697 0 32.603)" r="13.687"/><radialGradient id="x" xlink:href="#a" gradientUnits="userSpaceOnUse" cy="98.024" cx="485" gradientTransform="matrix(1 0 0 .85507 0 14.487)" r="11.297"/><radialGradient id="y" xlink:href="#a" gradientUnits="userSpaceOnUse" cy="103.53" cx="528.12" gradientTransform="matrix(1 0 0 1.5203 0 -53.866)" r="5.496"/><radialGradient id="z" xlink:href="#a" gradientUnits="userSpaceOnUse" cy="94.679" cx="463.1" gradientTransform="matrix(1 0 0 .677 0 31.238)" r="6.063"/><radialGradient id="A" xlink:href="#a" gradientUnits="userSpaceOnUse" cy="99.343" cx="416.49" gradientTransform="matrix(1 0 0 .7449 0 25.343)" r="5.288"/><radialGradient id="B" xlink:href="#a" gradientUnits="userSpaceOnUse" cy="99.844" cx="401.57" gradientTransform="matrix(1 0 0 .68718 0 31.233)" r="6.376"/><radialGradient id="C" xlink:href="#a" gradientUnits="userSpaceOnUse" cy="-152.81" cx="417.74" gradientTransform="matrix(1 0 0 .80775 0 -29.378)" r="11.883"/><radialGradient id="F" xlink:href="#a" gradientUnits="userSpaceOnUse" cy="-132.37" cx="359.14" gradientTransform="matrix(1 0 0 1.2317 0 30.674)" r="8.451"/><radialGradient id="G" xlink:href="#a" gradientUnits="userSpaceOnUse" cy="-128.17" cx="371.78" gradientTransform="matrix(1 0 0 1.8904 0 114.12)" r="3.5"/><linearGradient id="b" x1="369.37" gradientUnits="userSpaceOnUse" y1="786.97" gradientTransform="matrix(.03885 -.0011 .0011 .03885 197.47 788.84)" x2="370.33" y2="859.48"><stop offset="0"/><stop stop-opacity="0" offset="1"/></linearGradient><linearGradient id="a"><stop stop-color="#d98c26" offset="0"/><stop stop-color="#f9f3d4" offset="1"/></linearGradient><linearGradient id="D" x1="231.74" gradientUnits="userSpaceOnUse" y1="-240.43" gradientTransform="matrix(.0974 -.00276 .00276 .0974 182.2 834.44)" x2="343.66" y2="-240.43"><stop stop-color="#f9f9f9" offset="0"/><stop stop-color="#FFF" offset="1"/></linearGradient><linearGradient id="E" x1="370.71" gradientUnits="userSpaceOnUse" y1="-247.13" gradientTransform="matrix(.0974 -.00276 .00276 .0974 182.2 834.44)" x2="442.44" y2="-239.35"><stop stop-color="#ececec" offset="0"/><stop stop-color="#999" offset="1"/></linearGradient></defs><path d="M205.3 819.93s9.094 1.477 9.913 1.329c.66-.12 5.942-2.423 5.942-2.423l-14.389-.182z" fill="url(#b)" transform="translate(-228.468 -1097.95) scale(1.4441)"/><path d="M78.901 48.922c.028.003.058.006.087.012.067.012.136.027.204.054.266.103.503.289.525.409.05.263.822.42 1.655.337.709-.07 1.163.276 1.32 1.014.074.353.235.516.742.756.406.19.821.549 1.095.942l.44.632.38-.39c.747-.757.89-.854 1.205-.8.427.071.616.389.538.91-.047.314 0 .44.186.472.14.023.377.24.524.482.196.319.414.461.8.526.38.064.565.183.656.424.082.214.277.364.544.41.296.051.582.294.97.832.302.417.653.856.78.972a.82.82 0 01.225.547c-.003.212.155.453.425.635.596.404.696.796.369 1.468-.144.296-.344.603-.443.682a.256.256 0 00-.1.216l-1.021-.13-2.333-.417-8.832-.178-10.192-.334-1.39.256-1.053.106-1.044-.428c-.012-.157-.099-.352-.28-.629-.335-.51-.366-.68-.261-1.377.1-.667.166-.802.409-.83.16-.018.304-.147.325-.287.064-.428.555-.872.902-.813.18.03.362-.009.404-.097.088-.185.666-.139.981.084.169.119.34.003.748-.514.464-.59.509-.7.364-.945-.243-.415-.145-.74.346-1.103.562-.417 1.012-.337 1.362.243l.28.458.336-.315c.538-.503.716-.913.603-1.376-.125-.508.19-.833 1.116-1.147.842-.286 1.086-.222 1.125.293l.03.426.536-.51c.407-.39.6-.48.817-.377.368.176 1.13-.095 1.299-.462.072-.157.19-.275.262-.263.071.012.15-.108.173-.264.058-.386.384-.622.778-.618.028 0 .055.003.083.006z"/><path d="M476.46 38.561a3.173 3.173 0 00-1.586.148c-2.653.945-3.452 3.274-.939 2.745 1.153-.243 2.47 1.012 3.927 3.698 2.818 5.197 1.032 6.122-4.279 2.227-3.581-2.627-4.058-2.752-4.896-1.269-2.179 3.855 1.815 6.997 7.327 5.783 2.116-.467 2.13-.466-.164.988-1.632 1.034-1.979 1.693-1.173 2.27.622.446.795 1.219.392 1.704-.404.486.727 1.18 2.513 1.542 1.785.361 4.312 1.148 5.6 1.757 1.838.868 2.063.8 1.072-.34-.696-.8-.822-1.382-.275-1.31s-.496-1.175-2.325-2.77c-2.064-1.8-2.994-3.334-2.417-4.028.697-.84.954-.787 1.074.25.087.759.746 1.467 1.438 1.604.693.136 2.24 1.56 3.455 3.094 1.233 1.558 2.967 2.61 3.9 2.413 1.187-.25 1.406.072.793 1.157-1.088 1.926.096 2.145 2.128.393 1.175-1.013 1.351-1.91.826-3.796-.38-1.366-.424-2.717-.107-2.957.317-.24.699.674.834 1.992.319 3.123 2.398 2.225 2.267-.979-.056-1.35.083-1.82.26-1.013.394 1.805 2.277 2.292 3.981 1 .913-.69 1.093-1.902.724-4.326-.582-3.825-2.24-4.698-4.36-2.218-1.258 1.47-1.308 1.4-.494-.71.862-2.231.66-2.392-2.346-2.252-1.79.083-4.887-.265-6.898-.747-2.856-.685-3.75-.432-4.063 1.035-.312 1.464-.495 1.276-.838-.71-.523-3.025-2.63-5.572-4.798-6.249a4.048 4.048 0 00-.553-.126z" fill="url(#c)" transform="matrix(.14066 -.004 .004 .14066 11.7 45.748)"/><path d="M462.81 50.216a34.808 34.808 0 00-2.152-.153c-4.515-.224-5.667.22-7.758 2.768-3.143 3.832-3.218 4.405-.749 6.126 1.857 1.295 1.752 1.323-1.12.82-1.73-.302-3.498-.105-3.938.425-.441.531-.388 1.055.133 1.158.521.103.55 1.12.053 2.258-1.202 2.755 1.262 3.212 4.161.777 1.212-1.018 3.47-2.25 4.991-2.743 1.522-.491 2.724-1.603 2.7-2.458-.05-1.894 2.94-6.153 4.152-5.914.481.095.509.625.072 1.151-.437.527-.52 1.817-.2 2.89.397 1.335.86 1.66 1.477.916.497-.6 2.033-.924 3.396-.654 2.974.587 3.003-1.188.071-4.706-1.074-1.29-2.013-2.004-3.62-2.385a14.234 14.234 0 00-1.669-.276z" fill="url(#d)" transform="matrix(.14066 -.004 .004 .14066 11.7 45.748)"/><path d="M74.512 50.871c-.055-.001-.102.082-.122.215-.055.368-.324.531-.341.208-.01-.196-.08-.212-.496-.096-.676.19-.715.592-.056.585.323-.004.596.1.782.287.232.232.34.252.555.129.389-.222.37-.489-.039-.558-.288-.048-.33-.112-.226-.338.07-.153.065-.336-.006-.404-.01-.008-.016-.017-.025-.021a.074.074 0 00-.026-.007z" fill="#f9f3d4"/><path d="M503.02 56.935c-1.827-.213-3.54-.105-4.726.448-2.319 1.08-2.706 1.668-1.775 2.623.857.88.884 1.133-.005.97-1.51-.277-2.36 3.618-1.066 4.916.516.517 1.515.499 2.235-.047.72-.545 1.996-.812 2.826-.609.927.227.589.546-.874.88-1.312.3-2.48 1.107-2.6 1.776-.12.67.619 2.344 1.633 3.704 2.09 2.802 1.873 2.745 5.777 1.88 3.055-.678 4.147-2.738 2.247-4.17-.616-.464-.248-.574.808-.229 1.343.44 2.133-.072 2.658-1.735.413-1.309 1.393-2.286 2.165-2.133 1.93.381 2.015-1.105.222-3.72-1.31-1.911-4.481-3.495-7.674-4.224a17.424 17.424 0 00-1.852-.33z" fill="url(#e)" transform="matrix(.14066 -.004 .004 .14066 11.7 45.748)"/><path d="M529.74 61.637c-.99-.252-2.11.54-4.528 2.825-2.143 2.024-3.522 3.748-3.03 3.845 1.194.236 5.11 6.658 4.872 7.99-.104.578-1.204-.723-2.44-2.886s-3.056-4.097-4.053-4.3c-.997-.204-3.421-1-5.38-1.77-3.293-1.294-3.586-1.202-4.019 1.214-.257 1.438-.01 3.802.592 5.295.603 1.492.684 2.65.15 2.545-.535-.106-1.075-1.295-1.21-2.62-.153-1.492-.7-2.079-1.38-1.564-1.693 1.283-.814 3.97 1.91 5.916 8.384 5.99 15.647 4.377 17.158-3.772.243-1.306.941-2.594 1.548-2.856 1.985-.859 2.567-7.705.787-9.276-.338-.299-.647-.502-.977-.586z" fill="url(#f)" transform="matrix(.14066 -.004 .004 .14066 11.7 45.748)"/><path d="M472.3 58.44c-.72-.09-.902.535-.289 1.911.817 1.834.815 1.924-.149.54-1.35-1.94-6.56-3.193-6.837-1.643-.107.597.98 1.32 2.381 1.598 1.759.347 2.57 1.232 2.66 2.874.106 1.93.758 2.428 3.441 2.608 1.818.122 3.011.583 2.662 1.003-.348.42-1.277.6-2.055.446-2.565-.507-1.7 1.338 1.96 4.188 1.982 1.543 4.434 4.317 5.469 6.145 1.33 2.35 1.976 2.828 2.188 1.647.165-.92-.13-2.4-.67-3.293-.786-1.3-.728-1.509.384-1 .84.385 1.69-.315 2.158-1.752.865-2.653-.644-3.604-1.978-1.244-.471.833-1.387 1.42-2.077 1.275-.837-.176-.87-.446-.072-.839 2.24-1.103 2.884-3.674 1.953-7.77-.76-3.345-1.545-4.276-4.284-5.12-3.212-.991-3.292-.943-2.05 1.313 1.218 2.212 1.182 2.407-.805 3.278-1.334.585-2.294.482-2.549-.263-.222-.65.316-1.052 1.158-.886 2.129.42 2.249-1.47.207-3.27-1.025-.906-1.87-1.472-2.468-1.677a1.597 1.597 0 00-.338-.07z" fill="url(#g)" transform="matrix(.14066 -.004 .004 .14066 11.7 45.748)"/><path d="M492.29 61.475c-.086-.042-.15.43-.209 1.434-.072 1.222-1.29 2.994-2.726 3.947-2.868 1.9-3.431 6.646-.854 7.155.882.174 1.23-.286.91-1.223-.283-.828.502-.42 1.76.91 1.259 1.33 2.453 2.374 2.623 2.315.17-.059 1.58-.07 3.143-.022 2.332.072 2.69-.244 1.964-1.703-.487-.978-1.705-1.954-2.702-2.15-1.27-.251-1.549-.816-.9-1.965.566-1 .341-2.166-.573-3.005-.825-.757-1.715-2.522-1.989-3.914-.225-1.144-.36-1.737-.447-1.779z" fill="url(#h)" transform="matrix(.14066 -.004 .004 .14066 11.7 45.748)"/><path d="M441.01 57.009c-1.608-.4-4.62 2.422-4.33 4.266.24 1.517.065 1.508-1.153-.084-1.24-1.622-1.352-1.618-1.085.165.437 2.91-1.474 5.6-3.667 5.166-1.035-.205-2.222.324-2.626 1.115-.529 1.034-.182 1.317 1.242 1.064 1.878-.334 1.9-.307-.184.882-1.209.69-1.865 1.326-1.432 1.412.433.085-.363.872-1.777 1.722l-2.572 1.502 3.016 3.084c4.439 4.454 10.71 6.314 14.237 4.244 1.545-.907 3.083-1.346 3.431-.997.889.891 5.06-4.11 4.365-5.233-.313-.506-1.563.05-2.792 1.202-2.63 2.463-3.347.549-1.237-3.282 1.07-1.941.977-3.906-.4-9.018-.968-3.588-2.204-6.753-2.736-7.075a1.1 1.1 0 00-.3-.135z" fill="url(#i)" transform="matrix(.14066 -.004 .004 .14066 11.7 45.748)"/><path d="M462.86 60.168c-.823-.02-1.595.584-3.049 1.868-1.573 1.391-2.69 2.993-2.498 3.555.193.561-.968 1.773-2.534 2.684-3.938 2.288-5.423 9.964-2.72 14.067 2.192 3.328 2.693 3.526 3.835 1.505.506-.894.19-2.194-.804-3.202-.934-.946-1.61-2.165-1.517-2.687.093-.522 1.128.055 2.316 1.314 1.188 1.258 2.594 2.086 3.141 1.85.548-.237 1.192.12 1.426.805.635 1.854 2.67.594 2.347-1.456-.153-.973.364-2.34 1.126-3.037.888-.814 1.13-1.819.694-2.805-.958-2.164-.143-7.618 1.096-7.373.566.112.668.636.227 1.167-.44.531-.388 1.055.133 1.158.522.103.523 1.243-.006 2.53-.92 2.238-.832 2.232 2.332-.072l3.291-2.398-1.758-3.093c-.98-1.705-3.03-4-4.54-5.078-.957-.683-1.615-1.097-2.2-1.232-.121-.029-.22-.067-.338-.07z" fill="url(#j)" transform="matrix(.14066 -.004 .004 .14066 11.7 45.748)"/><path d="M73.853 52.267c.124.02.153.118.083.25-.062.118-.162.167-.224.109-.176-.167-.083-.397.141-.36zm5.88.522c.1.018.07.072-.068.14-.295.146-.344.138-.209-.035a.317.317 0 01.277-.105zm-3 .014c.032-.003.08.04.154.133.099.124.178.254.173.285-.005.032-.103.042-.218.023-.114-.02-.194-.144-.173-.28.015-.102.032-.158.064-.161z"/><path d="M76.007 52.788c-.065-.011-.248.097-.406.237s-.281.356-.273.48c.01.175.099.168.378-.044.361-.275.522-.636.3-.673z" fill="#f9f3d4"/><path d="M533.85 71.869a6.532 6.532 0 00-.59-.061c-3.518-.244-5.299 3.94-2.934 6.906 1.34 1.68 1.322 1.788-.063.929-1.17-.725-2.412.124-4.812 3.142-1.788 2.249-4.271 4.512-5.508 5.045-2.705 1.166-3.34 3.83-1.812 7.611 1.067 2.64.984 2.786-1.119 2.969-2.434.211-3.395 4.339-1.228 5.28.661.287.807.167.307-.246-.499-.413-.8-1.202-.699-1.77.112-.623.88-.465 1.903.439 2.877 2.538 3.745 2.092 4.545-2.373.6-3.35 1.297-4.503 3.197-5.18 1.396-.497 1.974-1.146 1.35-1.524-.602-.364-.75-1.268-.33-2.01.419-.741.36-1.76-.146-2.267-.568-.57-1.136.22-1.467 2.066-.388 2.167-.764 2.602-1.387 1.59-1.537-2.496.332-5.315 3.228-4.865 1.471.228 3.33-.013 4.135-.509.806-.496 3.285-.795 5.507-.713l4.038.14-3.503.47c-5.45.749-8.739 2.585-8.399 4.746.19 1.21.533 1.472.935.686.96-1.877 2.295-1.168 1.758.944-.388 1.524.167 1.934 3.134 2.23 2.005.2 3.863.93 4.105 1.637.26.759-.415 1.115-1.66.869-2.965-.586-6.738 3.145-5.971 5.898.325 1.168 1.103 1.915 1.684 1.664.58-.25 1.587.417 2.264 1.517 2.254 3.66 8.97 3.443 9.645-.32.124-.695 1.888-2.862 3.912-4.795 3.946-3.769 5.46-8.44 3.566-10.965-.752-1.003-3.004-1.686-6.495-1.919-3.505-.234-4.862-.626-3.875-1.128 2.245-1.14-1.633-5.163-4.744-4.926-1.42.108-2.282-.34-2.154-1.055.118-.661.74-.97 1.39-.688 1.749.763 3.2-5.72 1.724-7.689-.504-.673-1.65-1.327-2.848-1.646a5.79 5.79 0 00-.583-.13z" fill="url(#k)" transform="matrix(.14066 -.004 .004 .14066 11.7 45.748)"/><path d="M73.81 53.047c.008-.007.06.048.155.162.116.138.207.28.202.312-.019.126-.12.023-.263-.263-.068-.136-.103-.205-.095-.211z"/><path d="M418.22 62.349c-1.403-.277-7.064 4.21-5.843 4.63.487.167 1.325.499 1.84.744.516.246 1.598.646 2.39.906 1.28.42 1.258.548-.22 1.225-1.287.59-1.393.854-.36 1.071.81.17.32.868-1.252 1.812-2.452 1.473-2.504 1.615-.818 2.48.98.502 3.363.42 5.296-.18 2.942-.916 3.524-1.575 3.448-3.942-.103-3.2-2.776-8.41-4.48-8.746z" fill="url(#l)" transform="matrix(.14066 -.004 .004 .14066 11.7 45.748)"/><path d="M88.3 54.538c-.177-.024-.338-.007-.403.077-.053.067.001.326.126.574.285.569.52.614.508.1-.007-.323.023-.358.16-.187.206.26.344.166.278-.188-.034-.179-.375-.336-.67-.376z" fill="#f9f3d4"/><path d="M505.56 74.561c-.576-.126-3.237.962-5.903 2.44s-5.5 2.98-6.304 3.3-2.041 2.078-2.754 3.909c-1.166 2.997-1.006 3.535 1.524 5.702 1.863 1.596 3.94 2.395 6.198 2.373 5.05-.047 5.166-1.266.21-2.37-2.393-.532-4.783-1.7-5.296-2.591-.736-1.278-.629-1.437.457-.785.757.455 2.302.244 3.41-.48 1.814-1.183 1.964-1.097 1.675.52-.358 1.996 3.917 3.379 5.29 1.725.44-.53 1.23-.863 1.803-.75.717.142.652.583-.27 1.428-1.001.917-1.059 1.846-.212 3.618 1.07 2.239 1.13 2.189.56-.566-.556-2.698-.547-2.688.467-.576.606 1.261.724 2.923.283 3.703-1.013 1.793 3.298 2.79 5.339 1.245 1.868-1.416 1.994-2.338.844-7.676-.656-3.049-1.5-4.469-2.63-4.396-1.178.075-1.549-.641-1.231-2.415.464-2.588-1.597-6.95-3.46-7.358z" fill="url(#m)" transform="matrix(.14066 -.004 .004 .14066 11.7 45.748)"/><path d="M472.19 71.944c-1.774-.167-2.87.475-4.269 2.436-2.578 3.616-2.631 4.022-.761 4.392.827.163 2.041-.694 2.707-1.904.918-1.669 1.37-1.796 1.786-.578.693 2.024-3.94 4.992-5.814 3.732-.902-.607-1.432-.13-1.722 1.485-.342 1.912.007 2.283 1.805 2.024 1.492-.215 1.902.04 1.305.758-1.167 1.406 1.075 1.627 4.355.416 1.749-.646 3.293-.524 4.7.416 1.666 1.112 2.49 1.012 3.953-.562 1.628-1.752 1.712-2.35.803-4.804-1.478-3.992-4.628-7.018-8.043-7.693a7.91 7.91 0 00-.805-.118z" fill="url(#n)" transform="matrix(.14066 -.004 .004 .14066 11.7 45.748)"/><path d="M488.07 75.145c-.992-.24-1.55.496-1.86 2.234-.255 1.419-1.462 4.191-2.674 6.204l-2.229 3.687 2.826.014c2.662.018 2.7.073.63 1.21-1.203.66-1.746 1.246-1.234 1.327 1.384.22 4.897-1.923 4.42-2.697-.226-.368.57-2.55 1.785-4.875 2.041-3.902 2.087-4.351.607-5.656-.948-.837-1.675-1.304-2.27-1.448z" fill="url(#o)" transform="matrix(.14066 -.004 .004 .14066 11.7 45.748)"/><path d="M552.83 84.47c-2.123-.42-8.249 1.754-8.473 3.006-.077.43 1.392.788 3.246.82 6.669.119 7.698 8.945 1.677 14.384-1.668 1.506-3.142 3.274-3.258 3.926-.367 2.048 6.297 6.195 11.902 7.433 2.958.654 5.988 1.73 6.764 2.363.848.692 1.913.654 2.677-.07 3.276-3.105 4.182-9.084 1.451-9.624-2.601-.514-5.978-3.788-5.228-5.115.933-1.65.535-4.789-.65-5.023-.483-.095-1.03.802-1.236 1.952-.222 1.239-1.699 2.51-3.616 3.127-3.892 1.252-4.09-.203-.216-1.582 1.493-.532 2.77-1.328 2.852-1.785.477-2.667-1.027-6.7-2.739-7.353-1.095-.418-1.807-1.052-1.587-1.377.798-1.178-1.675-4.708-3.566-5.082z" fill="url(#p)" transform="matrix(.14066 -.004 .004 .14066 11.7 45.748)"/><path d="M511.46 81.062c-.355.017-.114.343.586 1.031.832.818 1.4 2.047 1.289 2.767-.111.72.217 2.133.715 3.159.783 1.612 1.438 1.502 4.903-.95 2.202-1.558 3.862-3.04 3.668-3.329-.618-.922-5.098.365-5.307 1.531-.11.616-.623 1.055-1.103.96-.48-.094-.653-.946-.402-1.912.31-1.198-.462-2.08-2.422-2.746-.591-.2-1.035-.334-1.371-.419-.252-.064-.438-.097-.556-.092z" fill="url(#q)" transform="matrix(.14066 -.004 .004 .14066 11.7 45.748)"/><path d="M82.473 55.051a.993.993 0 01.083.016c.084.02.197.055.336.103.39.134.42.174.178.227a.713.713 0 01-.53-.127c-.21-.172-.233-.243-.067-.219z"/><path d="M422.08 75.641c-.95-.154-1.886.16-3.134.855-1.495.832-2.178 2.308-2.496 5.39-.424 4.103-.338 4.249 3.048 4.613 3.255.35 3.315.425 1.314 1.592-2.018 1.178-2.038 1.465-.975 4.335.622 1.678 2.204 3.954 3.535 5.079 4.107 3.47 6.025 4.136 7.704 2.702.876-.749 2.934-1.397 4.575-1.434 2.292-.051 3.12-.676 3.474-2.656.254-1.417.931-2.49 1.53-2.372.597.118.724.828.312 1.557-.412.73-.124 2.673.627 4.328 1.35 2.974 1.902 2.581 2.448-1.827.12-.968.295-1.071.467-.263.254 1.202 3.098.755 7.694-1.216.766-.328-7.454-13.002-8.58-13.224-2.249-.444-6.514 1.432-7.334 3.228-.478 1.048-1.266 2.842-1.786 3.975-.681 1.483-.476 2.16.73 2.397 1.125.223.27 1.153-2.615 2.85-4.81 2.828-5.932 2.85-8.16.23-1.712-2.014-1.237-8.476.653-8.874.734-.154.861 1.19.348 3.675-.72 3.486-.537 4.05 1.65 4.78 3.238 1.081 4.86-.496 6.328-6.312 1.152-4.57 1.068-4.803-1.77-6.075-1.622-.727-4.1-2.671-5.5-4.276-1.471-1.685-2.57-2.608-3.659-2.943-.136-.042-.292-.092-.428-.114z" fill="url(#r)" transform="matrix(.14066 -.004 .004 .14066 11.7 45.748)"/><path d="M73.941 55.114c.077.013.092.087.032.163-.06.077-.17.126-.246.113-.076-.013-.088-.086-.028-.163.06-.076.166-.126.242-.113z"/><path d="M412.95 77.089c-4.282-.29-6.08 3.865-2.314 6.38 1.372.917 3.173 2.64 4.037 3.849 1.53 2.142 1.553 2.124.45-.716a8.395 8.395 0 01-.028-5.895c.981-2.628.848-3.077-1.247-3.49a7.222 7.222 0 00-.898-.128z" fill="url(#s)" transform="matrix(.14066 -.004 .004 .14066 11.7 45.748)"/><path d="M88.905 56.383a.99.99 0 01.136.015c.19.032.34.107.331.17-.01.064-.175.088-.366.056-.19-.032-.336-.107-.327-.17.008-.048.099-.074.226-.07z"/><path d="M448.98 81.123c-.866-.111-1.72.404-2.136 1.547-.393 1.077.305 1.776 2.284 2.246 2.565.61 2.81.405 2.112-1.619-.39-1.13-1.13-1.818-1.894-2.067-.123-.04-.242-.091-.366-.107z" fill="url(#t)" transform="matrix(.14066 -.004 .004 .14066 11.7 45.748)"/><path d="M71.463 55.235c.034.005.07.01.104.018.21.047.386.16.4.317.02.213.011.21-.091-.017-.102-.227-.129-.234-.283-.05-.154.184-.188.18-.279-.045-.087-.217-.11-.216-.146.013-.024.148-.108.258-.19.244-.082-.014-.11-.144-.063-.287.056-.167.306-.222.548-.193zm16.722 1.279c.019.005.043.049.07.132.05.155.038.375-.023.49-.164.31-.19.247-.129-.287.028-.238.051-.343.082-.335z"/><path d="M473.92 85.779c-1.89-.319-3.545 1.081-5.207 4.245-2.44 4.645-2.198 6.674.596 4.948 1.027-.635 1.681-1.998 1.554-3.236-.188-1.843.332-2.064 3.846-1.37l4.065.801-4.1 2.938-4.065 2.907 3.863 2.167c2.13 1.185 4.388 2.524 5.005 2.978 1.3.955 1.688-.287.839-2.686-.324-.916-1.097-1.443-1.702-1.181s-1.17-.49-1.238-1.722c-.107-1.945.126-2.059 1.673-.694 1.356 1.197 2.022 1.252 2.863.261 1.955-2.304 1.698-4.017-.868-5.67-1.378-.887-3.358-2.321-4.386-3.19-.99-.836-1.879-1.351-2.738-1.496z" fill="url(#u)" transform="matrix(.14066 -.004 .004 .14066 11.7 45.748)"/><path d="M463.3 85.479c-1.217-.311-1.954.615-3.022 3.154-.992 2.355-.8 2.665 2.027 3.224 4.37.864 6.43-2.646 3.042-5.196-.837-.63-1.494-1.04-2.047-1.182z" fill="url(#v)" transform="matrix(.14066 -.004 .004 .14066 11.7 45.748)"/><path d="M89.112 56.934c.007.002.017.004.021.011.036.055-.03.193-.145.305-.3.29-.363.239-.125-.106.098-.142.2-.228.25-.21z"/><path d="M75.14 56.026c-.042-.002-.07.016-.075.053-.03.204.576.751.683.615.052-.067.025-.204-.058-.301-.175-.206-.426-.362-.55-.367z" fill="#f9f3d4"/><path d="M399.38 81.128c-.97-.208-1.918.439-2.313 2.048-1.176 4.79-2.064 6.555-4.095 8.138-1.138.885-2.308 2.817-2.575 4.309-.267 1.491-.022 2.788.522 2.895.543.108 2.164-.828 3.605-2.088 1.441-1.26 3.393-2.13 4.344-1.943.95.188 2.038-.056 2.443-.544.421-.508 1.807-.003 3.211 1.163 2.466 2.05 6.895 2.497 7.215.711a1.062 1.062 0 00-.82-1.194c-.54-.106-.887-.725-.773-1.362.12-.673.98-.669 2.076-.028 1.983 1.16 5.057-.06 5.436-2.176.151-.844-2.304-1.753-7.576-2.724-7.243-1.334-7.83-1.593-8.375-4.123-.383-1.776-1.355-2.874-2.325-3.082z" fill="url(#w)" transform="matrix(.14066 -.004 .004 .14066 11.7 45.748)"/><path d="M487.97 90.315c-1.285-.126-2.117.38-2.323 1.528-.132.735.196 2.067.736 2.952.788 1.29.682 1.398-.502.607-1.053-.704-1.767-.26-2.547 1.573-2.103 4.946.138 8.407 3.476 5.35 1.018-.932 3.314-1.048 7.037-.312 4.544.897 5.951 1.677 7.726 4.333 2.439 3.65 3.105 4.085 3.462 2.09.544-3.038-1.971-7.038-4.328-6.858-2.83.215-3.768-1.04-1.99-2.667 1.036-.948.19-2.039-3.85-5.076-2.539-1.91-4.726-3.08-6.341-3.428a4.714 4.714 0 00-.556-.092z" fill="url(#x)" transform="matrix(.14066 -.004 .004 .14066 11.7 45.748)"/><path d="M527.05 95.184c-.802-.049-1.621.202-2.194.882-.558.663-1.424 2.862-1.909 4.863-.691 2.853-.342 4.442 1.577 7.337 2.879 4.343 2.927 4.379 6.402 2.221l2.686-1.698-2.354-1.56c-1.297-.866-2.295-2.227-2.239-3.004.057-.776.14-2.182.19-3.1.05-.916.163-2.516.27-3.576.113-1.115-.633-1.896-1.628-2.213a3.396 3.396 0 00-.801-.152z" fill="url(#y)" transform="matrix(.14066 -.004 .004 .14066 11.7 45.748)"/><path d="M69.203 55.806c-.162-.016-.37.05-.388.17-.009.062.279.16.641.224.362.063.508.062.323-.01-.185-.073-.365-.207-.398-.293-.016-.043-.059-.066-.113-.081a.328.328 0 00-.065-.01zm7.016.539a.089.089 0 00-.058.005.338.338 0 00-.175.22.146.146 0 00.12.165c.077.013.155-.079.174-.21.015-.1-.012-.17-.061-.18zm6.637.52a.716.716 0 00-.299.1c-.265.15-.268.188-.075.31.117.074.171.188.117.257-.105.135-.099.138.176.067.202-.053.324-.563.171-.708-.006-.006-.01-.012-.02-.016a.195.195 0 00-.07-.01zM67.232 55.81c-.194-.023-.573.31-.618.61-.023.156.013.296.088.308.208.035.704-.628.625-.838-.018-.048-.05-.075-.095-.08zm17.358 1.389l-.464.272c-.259.149-.448.338-.419.416.03.078.068.141.082.142.106.009.37-.234.567-.507l.235-.323z" fill="#f9f3d4"/><path d="M82.74 57.066c.081.013.136.095.124.179-.013.084-.047.146-.081.14-.034-.006-.094-.083-.128-.175-.035-.092.004-.158.085-.144zm-15.124-1.077c-.037-.017-.1.046-.157.154-.135.254-.061.312.112.09.064-.08.091-.182.061-.228a.053.053 0 00-.016-.016z" fill="#f9f3d4"/><path d="M72.59 56.39c.017 0 .027.002.04.008.05.023.073.102.1.255.033.189.016.395-.038.464-.147.187-.31.126-.476-.186-.126-.236-.104-.305.152-.45a.585.585 0 01.223-.091zm8.659.803a.085.085 0 01.05.023.353.353 0 01.105.266.138.138 0 01-.159.119c-.076-.013-.124-.13-.104-.26.015-.1.058-.154.108-.148z"/><path d="M461.4 92.699a4.397 4.397 0 00-1.63-.03c-1.274.204-3.186.182-4.273.01-2.239-.356-3.218 2.363-1.272 3.542.773.468 1.095.251.812-.575-.277-.81.237-1.248 1.238-1.05 1.553.306 1.519.485-.264 1.982-1.785 1.5-1.826 1.736-.36 3.22 1.255 1.272 2.357 1.331 5.247.3 2.01-.716 3.951-2.017 4.286-2.919.664-1.786-1.436-3.976-3.784-4.48z" fill="url(#z)" transform="matrix(.14066 -.004 .004 .14066 11.7 45.748)"/><path d="M88.388 57.857c.034.005.089.087.124.18.034.092 0 .158-.082.144a.16.16 0 01-.128-.18c.013-.084.052-.15.086-.144zM66.41 56.838c-.275-.032-.3.062-.394.695-.079.526-.048.83.105 1.04.282.388.794.465.955.144.07-.14.167-.32.223-.397.055-.077-.079-.044-.305.07-.53.265-.666.232-.698-.16-.018-.207.043-.305.17-.284.108.019.208-.04.222-.134.014-.096-.101-.16-.263-.141-.196.023-.278-.041-.255-.2.024-.155.12-.195.29-.114.154.074.302.038.369-.089.17-.323.164-.335-.283-.41a2.647 2.647 0 00-.135-.02z"/><path d="M85.434 58.516a.15.15 0 00-.059.015c-.084.04-.154.102-.16.14s.05.079.126.091c.076.013.15-.049.164-.138.01-.067-.02-.108-.071-.108z" fill="#f9f3d4"/><path d="M416.89 95.483c-2.148-.382-4.092.625-5.23 2.925-.482.976-.6 2.648-.283 3.714.502 1.69 1.108 1.607 4.66-.731 2.24-1.475 4.692-2.62 5.44-2.523.747.098.047-.766-1.56-1.963-1.017-.759-2.051-1.249-3.027-1.422z" fill="url(#A)" transform="matrix(.14066 -.004 .004 .14066 11.7 45.748)"/><path d="M400.24 95.495a7.875 7.875 0 00-1.382-.004c-2.341.218-3.005.924-3.465 3.489-.45 2.52-.18 3.144 1.344 3.154 1.058.007 2.148.647 2.403 1.392.325.95.891.93 1.951-.041 1.275-1.167 1.03-1.651-1.571-3.074-2.907-1.59-2.91-1.689-.403-1.289 1.463.233 2.842.971 3.069 1.634.227.663 1.71 1.482 3.304 1.797 2.641.522 2.828.35 2.07-1.83-.823-2.372-3.268-4.301-5.963-4.984a8.325 8.325 0 00-1.357-.244z" fill="url(#B)" transform="matrix(.14066 -.004 .004 .14066 11.7 45.748)"/><path d="M71.686 58.2c-.076-.013-.056.058.046.159.102.1.247.2.324.214.076.013.057-.068-.045-.169-.103-.101-.248-.191-.325-.204zm-4.189.499c-.062-.009-.086.018-.095.085-.012.099.105.321.264.497.274.302.296.31.397.058.076-.188-.003-.33-.268-.496-.139-.087-.236-.136-.298-.144z" fill="#f9f3d4"/><path d="M88.96 81.47l-.224.146s-.365.76-.464 1.166a2.76 2.76 0 00-.082.82c.019.307.142.784.228 1.085l.14.41.778.004c1.197.007 2.38-.169 2.546-.376.09-.114.063-.178-.104-.221-.2-.052-.18-.127.12-.443.412-.434.503-1.354.189-1.88-.33-.55-1.56-.76-2.131-.366-.268.184-.986.037-1.014-.209l.019-.137z"/><path d="M420.47-162.41c.727.033 1.474.252 2.25.656 1.597.833 1.588.746-1.594 9.219-.61 1.625-1.944 2.76-3.594 3.094-1.814.367-2.4.98-1.937 1.937.369.764 1.265 1.343 2 1.282 2.068-.174 6.547-5.574 6.031-7.282-.605-2.002 1.303-6.402 2.844-6.53 2.216-.186 2.576 3.447.5 5l-1.97 1.467 2.281.625c1.255.348 2.304 1.027 2.344 1.5.112 1.34-4.747 4.116-7.094 4.062-1.16-.026-1.523.19-.812.438.71.248 1.334.83 1.375 1.312.166 1.986-3.297 3.052-6.531 2-2.64-.858-3.216-1.526-2.97-3.437.297-2.296.274-2.289-1.093-.281-.774 1.136-1.38 2.431-1.344 2.875.125 1.492-3.812 1.136-4.875-.438-1.08-1.601.1-14.093 1.5-15.875.392-.498 1.74-.482 3 .063 1.619.7 2.198 1.627 1.938 3.125-.296 1.699.151 1.441 2.25-1.282 1.66-2.155 3.19-3.294 4.78-3.5.24-.03.477-.042.72-.03z" fill="url(#C)" transform="rotate(-1.637 3767.325 -1079.228) scale(.14072)"/><path d="M89.409 83.287c-.081.009-.105.08-.048.15.056.072.132.127.166.123.034-.003.053-.069.044-.146a.147.147 0 00-.162-.127z"/><path d="M81.205 57.619l.984-.083.024 29.812-.37.024z" fill="#999"/><path d="M213.6 799.37c-.539.045-.943.564-.983 1.207-.161-.627-.725-1.065-1.357-1.013a1.28 1.28 0 00-1.068.795c-.227-.423-.638-.694-1.082-.658-.484.04-.868.433-.994.952-.198-.511-.64-.852-1.122-.812-.443.036-.794.383-.936.855-.21-.489-.659-.81-1.146-.769-.47.04-.845.403-.986.893l-.07-.004c-.017.087-.016.227.01.484l.006.083c.006.07.016.136.03.203.111.85.41 2.611 1.079 6.558.574 3.781 1.34 8.06 1.977 11.505-.129.014.088.043.121.07.06.05.531.16 4.842.707 1.227.155 2.392.31 2.59.343.177.031.319.049.462.042l-.24-20.565c-.183-.546-.639-.916-1.133-.875z" fill="url(#D)" transform="translate(-228.468 -1097.95) scale(1.4441)"/><path d="M215.53 799.53c-.284-.001-.548.254-.704.644v.003l.238 20.623c.269-.031.573-.147 1.153-.395.243-.104.47-.197.638-.259.004 0 .005-.002.01-.003l.448-.186v.003l1.87-.775.147-.065.18-.072.019-.116-.077-.026.08.001c.32-2.01.565-4.119.848-5.95 1.051-6.754 1.577-10.313 1.676-11.346l-.103-.003c-.07-.517-.309-.914-.619-.963-.299-.048-.58.24-.726.696-.08-.503-.331-.884-.66-.931-.304-.044-.593.21-.763.618-.07-.529-.327-.937-.667-.986-.346-.05-.669.29-.821.8-.051-.574-.323-1.026-.683-1.077-.308-.044-.603.218-.77.637-.091-.471-.335-.823-.65-.868a.462.462 0 00-.064-.004z" fill="url(#E)" transform="translate(-228.468 -1097.95) scale(1.4441)"/><path style="block-progression:tb;text-indent:0;text-transform:none" d="M79.992 56.42a1.25 1.25 0 00-.267.052l.157 12.067c.472 1.021.63 2.216.42 3.45a6.397 6.397 0 01-.36 1.273l.104 7.85a.582.582 0 01.063.05c.003.003.01.002.013.005l-.009.004a.47.47 0 01.132.296l-.01.598a.65.65 0 01-.08.302v.004a.69.69 0 01-.093.135l.062 4.652.565.076-.403-30.805a1.249 1.249 0 00-.295-.009zm-3.38.28a1.803 1.803 0 00-.302.05l.274 4.237c.035.005.07.014.102.028a.912.912 0 01.337.25c.065.074.114.158.157.246l-.308-4.809a1.727 1.727 0 00-.26-.001zm-3.104.199a1.584 1.584 0 00-.145.022l.323 4.566a.685.685 0 01.122-.039.73.73 0 01.442.058l-.324-4.575a1.389 1.389 0 00-.418-.032zm-3.057.201a1.882 1.882 0 00-.092.012l1.067 9.841c.168-.127.342-.249.522-.362l-.238-2.189a.563.563 0 01-.246-.155.35.35 0 01-.013-.013.692.692 0 01-.138-.362l-.186-1.908a.743.743 0 01.06-.362.35.35 0 010-.005.588.588 0 01.196-.23l-.459-4.219a1.347 1.347 0 00-.472-.048zm-3.005.125c-.124.01-.245.036-.359.076l4.095 28.651c.152.027.341.057.579.094l-.582-4.07-.022-.005h-.004a.484.484 0 01-.277-.124.295.295 0 01-.004-.004.427.427 0 01-.123-.305.433.433 0 01.137-.285c-.033-.04-.065-.073-.092-.13a.594.594 0 01-.002-.537.602.602 0 01.162-.189l-1.01-7.058c-.62-1.096-.91-2.282-.734-3.24.038-.207.102-.414.185-.625l-1.751-12.25a1.323 1.323 0 00-.198 0zm6.443 5.36l-.035.015.009.008a.22.22 0 00.128.023c.016-.003.015-.009.026-.014l-.129-.032zm3.4.63a.506.506 0 01-.275.197.35.35 0 01-.022.004.451.451 0 01-.252-.033l.159 2.482c.2.067.393.146.578.234l-.187-2.885zm-2.876.644a.35.35 0 01-.013.009.933.933 0 01-.256.1v.004h-.009a.687.687 0 01-.277.007l.124 1.748c.185-.044.37-.08.556-.104l-.125-1.765zm3.684 11.827a4.988 4.988 0 01-.54.345l.338 5.256a.787.787 0 01.2-.085.823.823 0 01.356-.023l-.354-5.494zm-5.7.21l.488 4.482a.471.471 0 01.193.122h.004a.496.496 0 01.27-.078c.03.003.067.018.103.037l-.46-4.255a5.625 5.625 0 01-.598-.308zm2.348.738l.275 3.943.34.034c.051.005.118.052.182.087l.048-.018-.282-4.035a5.673 5.673 0 01-.563-.01zm.863 4.82c0 .012.01.021.01.034a.362.362 0 01-.044.151c.015.012.035.007.049.02v.005h.004l.003-.198c-.009-.002-.013-.01-.022-.013zm-2.314 2.027c-.012.013-.022.03-.034.04-.009.008-.02.013-.03.019l.298 2.754c.182.025.364.053.57.08l-.298-2.727a.463.463 0 01-.166.022.479.479 0 01-.281-.132l-.06-.056zm2.287.137a.403.403 0 01-.09.113.295.295 0 01-.008.004.434.434 0 01-.235.082l.192 2.735c.17.022.387.053.57.076l-.193-2.762a.463.463 0 01-.161-.087.295.295 0 01-.013-.013c-.038-.036-.039-.097-.061-.148zm2.912.292c-.024.034-.047.07-.077.094a.295.295 0 01-.013.009.322.322 0 01-.13.06.295.295 0 01-.013.001c.015-.004-.033.034-.153.022l-.031-.003.181 2.824.57.072-.188-2.885a.48.48 0 01-.09-.068.295.295 0 01-.008-.009c-.028-.028-.028-.078-.048-.117zm4.214-27.259l-.03.006.135 30.527c.107-.039.224-.082.352-.133l-.068-15.269c-.247-.838-.357-1.725-.27-2.412.042-.33.132-.684.256-1.04l-.053-11.635a.7.7 0 00-.248-.046c-.025 0-.049 0-.074.002zm2.042.334l-.118 9.04c.115-.082.233-.15.355-.209l.028-2.103c-.016-.025-.027-.05-.037-.07a.267.267 0 01-.004-.008.59.59 0 01-.038-.268l.09-1.595c.002-.029.01-.058.016-.088l.057-4.647a.739.739 0 00-.349-.053zm2.215.399l-.175 4.228a.49.49 0 01.272.125c.003.002.006.01.009.013.019-.027.031-.057.055-.081l.004-.004c.001-.003.006-.003.009-.005l.17-4.202a.723.723 0 00-.212-.068c-.045-.006-.089-.008-.132-.006zm2.162.532l-.307 4.06c.007.034.015.067.02.102.02.113.026.227.019.347l-.032.577a.643.643 0 01-.063.252v.005h-.005c-.011.022-.027.041-.042.063v.004l-.223 2.98c.116.11.224.228.327.356l.648-8.623a.75.75 0 00-.342-.122zm1.88.339c-.023.003-.045.005-.066.01l-1.163 10.499c.136.619.186 1.292.14 1.975l1.38-12.445a.631.631 0 00-.292-.04zm-4.256 4.291v.018h.009c.009-.002.006-.008.013-.01l-.022-.008zm.234.979c-.023.024-.037.051-.068.072a.267.267 0 01-.009.009.57.57 0 01-.191.071v.005h-.013l-.072 1.793c.116.002.231.008.348.03l.078-1.917a.275.275 0 01-.054-.038c-.01-.008-.01-.017-.018-.026zm2.862 7.833a6.194 6.194 0 01-.56 1.828l-1.316 11.88.087-.033.213-.094.073-.028 1.503-13.553zm-5.32 2.892l-.084 6.64a.365.365 0 00.04.008c.026-.015.044-.038.069-.042.028-.004.068.015.106.023.03-.022.044-.051.09-.06a.077.077 0 01.045.008l.08-6.307a3.632 3.632 0 01-.346-.271zm3.7.29a2.892 2.892 0 01-.372.249l-.429 5.67c.033.028.047.055.06.077l.004-.005c.003.003.003.006.004.009.03.05.053.113.062.17l.087.578c.01.067.016.135.015.206v.005a.865.865 0 01-.021.19v.004a.577.577 0 01-.074.173.247.247 0 01-.005.005l-.004.004c.033.024.068.05.086.077v.004c.01.018.016.032.023.048l.563-7.464zm-1.991.545l-.227 5.515h.013a.288.288 0 01.208.046c.045.032.064.068.082.099h.005v.004c.015.025.02.052.029.079h.004l.234-5.713a2.723 2.723 0 01-.349-.03zm-1.703 7.435l-.07.01h-.004c-.012.002-.024.001-.036.001l-.053 4.018c.116-.046.232-.093.327-.128l.013-.004.013-.005.034-2.649a.512.512 0 01-.082-.094.247.247 0 01-.004-.005c-.044-.07-.058-.127-.075-.173a1.17 1.17 0 01-.055-.21l-.043-.285a1.235 1.235 0 01-.015-.206c.001-.058 0-.122.017-.194.006-.028.023-.05.033-.076zm2.946.875c-.037.03-.074.066-.117.074-.04.007-.077-.012-.115-.023-.013.014-.027.03-.047.04h-.004l-.147 1.967.365-.155.14-1.874c-.026-.006-.05-.02-.075-.029zm-1.274.221c-.032.03-.056.063-.108.074v.004h-.004c-.07.012-.103-.015-.142-.035-.023.017-.045.035-.069.05l-.094 2.264.356-.146.092-2.198-.031-.013z" fill="#A00" color="#000"/><path style="block-progression:tb;text-indent:0;text-transform:none" d="M74.85 65.33c-1.217.085-2.404.293-3.385.985-1.308.922-2.273 2.48-2.503 3.731-.231 1.258.274 3.074 1.21 4.378.937 1.305 2.323 2.104 3.957 2.383 3.232.55 5.886-1.648 6.42-4.78.533-3.131-1.242-6.088-4.474-6.639a5.155 5.155 0 00-1.224-.058zm.033.505c.37-.026.743-.01 1.11.052 2.969.506 4.55 3.153 4.056 6.053-.494 2.9-2.864 4.873-5.833 4.367-1.465-.25-2.759-.962-3.634-2.18-.874-1.218-1.314-2.937-1.12-3.99.194-1.055 1.074-2.546 2.296-3.408.916-.646 2.016-.815 3.125-.894z" fill="#A00" color="#000"/><path d="M72.771 80.652a.133.133 0 00-.1.03.103.103 0 00-.041.081l-.01.661a.106.106 0 01-.045.086.135.135 0 01-.097.026.155.155 0 01-.095-.045.13.13 0 01-.043-.093l.01-.657a.133.133 0 00-.037-.093.142.142 0 00-.096-.044.129.129 0 00-.096.026.11.11 0 00-.04.085l-.011.673a.41.41 0 00.037.147.468.468 0 00.081.129.48.48 0 00.126.09.449.449 0 00.31.03.485.485 0 00.131-.055.47.47 0 00.435.103.386.386 0 00.132-.07.337.337 0 00.126-.244l.01-.673a.128.128 0 00-.042-.093.15.15 0 00-.095-.044.13.13 0 00-.097.026.11.11 0 00-.045.085l-.01.657a.106.106 0 01-.04.086.139.139 0 01-.101.025.153.153 0 01-.096-.044.13.13 0 01-.038-.093l.01-.66a.119.119 0 00-.037-.09.15.15 0 00-.096-.048zm-1.348-.123a.355.355 0 00-.153.017.391.391 0 00-.128.066.295.295 0 00-.088.377.42.42 0 00.086.117.499.499 0 00.273.13l.14.014a.14.14 0 01.082.039c.024.021.039.047.038.077a.09.09 0 01-.04.074.116.116 0 01-.083.024l-.367-.035a.135.135 0 00-.1.026.104.104 0 00-.041.081.13.13 0 00.038.093.155.155 0 00.1.045l.366.034a.424.424 0 00.28-.078.317.317 0 00.09-.377.412.412 0 00-.09-.121.455.455 0 00-.126-.09c-.046-.023-.144-.04-.144-.04l-.14-.014s-.059-.013-.082-.035a.117.117 0 01-.034-.077.1.1 0 01.036-.074.11.11 0 01.084-.027l.366.034c.04.004.07-.006.097-.026a.1.1 0 00.04-.082.147.147 0 00-.042-.093.136.136 0 00-.091-.044zm2.317.218a.126.126 0 00-.101.03.108.108 0 00-.04.082l-.014.917a.13.13 0 00.042.093.16.16 0 00.096.044l.584.055a.135.135 0 00.097-.026.107.107 0 00.045-.085.128.128 0 00-.043-.09.144.144 0 00-.095-.044l-.45-.042.003-.221.315.03a.14.14 0 00.096-.027.099.099 0 00.04-.082.127.127 0 00-.037-.093.15.15 0 00-.096-.044l-.314-.03.003-.21.45.043a.129.129 0 00.096-.026.099.099 0 00.045-.081.13.13 0 00-.043-.094.145.145 0 00-.095-.044zm.999.094a.12.12 0 00-.097.03.109.109 0 00-.04.082l-.013.917a.122.122 0 00.038.094.17.17 0 00.095.044l.589.055a.135.135 0 00.096-.026.105.105 0 00.04-.086.12.12 0 00-.037-.089.145.145 0 00-.096-.044l-.453-.043.003-.221.314.03a.14.14 0 00.096-.027c.028-.021.045-.047.045-.081a.13.13 0 00-.042-.094.15.15 0 00-.096-.044l-.314-.03.003-.21.454.044a.135.135 0 00.096-.026.096.096 0 00.04-.082.127.127 0 00-.037-.093.145.145 0 00-.096-.044zm.96.09a.125.125 0 00-.097.027.11.11 0 00-.04.085.12.12 0 00.037.09c.027.025.057.04.096.044l.23.021-.01.797a.13.13 0 00.037.093.16.16 0 00.1.045c.04.004.07-.006.097-.026a.109.109 0 00.04-.086l.012-.797.23.022a.126.126 0 00.097-.026.099.099 0 00.045-.081.13.13 0 00-.042-.094.142.142 0 00-.096-.044zm4.117.392c-.018-.001-.036-.001-.052.003s-.032.013-.044.023a.115.115 0 00-.031.032.125.125 0 00-.01.046l-.003.21a.554.554 0 00-.582.027.427.427 0 00-.106.134.386.386 0 00-.005.338c.026.056.062.11.107.154a.602.602 0 00.347.161.482.482 0 00.347-.1.387.387 0 00.11-.129.354.354 0 00.042-.167l.009-.599a.114.114 0 00-.038-.09.144.144 0 00-.091-.043zm-1.448.137a.516.516 0 00-.196.016.462.462 0 00-.159.082.412.412 0 00-.107.13.406.406 0 00-.041.168l-.005.326c0 .032.012.061.038.086.027.024.06.04.096.044a.141.141 0 00.096-.026.102.102 0 00.04-.082l.005-.334c0-.027.006-.05.019-.072a.184.184 0 01.053-.058.221.221 0 01.158-.043.26.26 0 01.16.077.207.207 0 01.068.15l-.004.327c0 .033.013.065.038.09a.166.166 0 00.095.04.127.127 0 00.092-.03.097.097 0 00.04-.078l.005-.339a.374.374 0 00-.037-.174.546.546 0 00-.267-.247.572.572 0 00-.187-.053zm-1.112-.097c-.103-.01-.195.002-.276.044s-.145.101-.186.177a.353.353 0 00-.042.171.49.49 0 00.007.094c.008.03.016.059.03.088a.557.557 0 00.669.285c.005-.001.007-.004.012-.007s.015-.005.022-.006a.146.146 0 00.113.069.13.13 0 00.092-.026.1.1 0 00.04-.082l.005-.323a.453.453 0 00-.122-.303.524.524 0 00-.308-.177c-.01-.003-.021-.001-.03-.003a.406.406 0 01-.027-.003zm-.007.236a.245.245 0 01.16.078.22.22 0 01.052.07.168.168 0 01.016.076c0 .03-.006.056-.019.08a.214.214 0 01-.053.061.217.217 0 01-.075.036.249.249 0 01-.17-.016.306.306 0 01-.125-.12.205.205 0 01-.016-.084c0-.027.006-.049.018-.072a.198.198 0 01.054-.061.21.21 0 01.07-.04.221.221 0 01.088-.008zm2.198.207a.271.271 0 01.156.073c.022.02.04.045.052.071a.18.18 0 01.016.08.158.158 0 01-.018.076.206.206 0 01-.054.061.238.238 0 01-.075.04.261.261 0 01-.174-.017.306.306 0 01-.074-.054.228.228 0 01-.047-.067.205.205 0 01-.016-.083c0-.027.006-.049.019-.072a.187.187 0 01.049-.062.229.229 0 01.074-.04.244.244 0 01.092-.006zm-6.452.33a.143.143 0 00-.1.026c-.027.02-.036.048-.037.082l-.013.925c0 .034.009.066.034.093a.165.165 0 00.1.045.135.135 0 00.096-.026.11.11 0 00.045-.086l.003-.16.166.016.27.271a.165.165 0 00.1.045.13.13 0 00.097-.026.106.106 0 00.04-.086.124.124 0 00-.037-.09l-.155-.15a.409.409 0 00.172-.14.373.373 0 00.069-.215.494.494 0 00-.3-.437.556.556 0 00-.191-.053zm-.711-.062a.539.539 0 00-.201.011.462.462 0 00-.159.083.384.384 0 00-.148.297l-.004.3a.373.373 0 00.04.17.519.519 0 00.103.15.6.6 0 00.352.154l.018.001a.508.508 0 00.245-.031.393.393 0 00.172-.136.307.307 0 00.018-.033.069.069 0 00.009-.034.119.119 0 00-.043-.09.155.155 0 00-.095-.048c-.037-.003-.063 0-.08.012a.256.256 0 00-.048.05.183.183 0 01-.07.052.282.282 0 01-.097.022L72.27 83a.274.274 0 01-.096-.029.228.228 0 01-.12-.116.203.203 0 01-.012-.083l.004-.291a.171.171 0 01.068-.134.223.223 0 01.074-.032.217.217 0 01.088-.007c.013.001.028.001.04.004a.37.37 0 01.086.04.205.205 0 01.069.064.302.302 0 00.051.06.136.136 0 00.074.026.125.125 0 00.097-.026.11.11 0 00.045-.085.083.083 0 00-.009-.036.474.474 0 00-.185-.2.558.558 0 00-.26-.084zm1.819.17a.13.13 0 00-.092.023.096.096 0 00-.045.078l-.008.606a.449.449 0 00.14.325.57.57 0 00.54.148.41.41 0 00.274-.2.347.347 0 00.04-.167l.009-.614a.117.117 0 00-.038-.086.146.146 0 00-.092-.043.143.143 0 00-.096.022.092.092 0 00-.04.078l-.01.606a.161.161 0 01-.018.076.176.176 0 01-.053.061.214.214 0 01-.075.036.217.217 0 01-.087.007.283.283 0 01-.157-.069.185.185 0 01-.068-.147l.01-.61a.112.112 0 00-.039-.085.152.152 0 00-.095-.044zm2.604.246a.539.539 0 00-.2.012.462.462 0 00-.16.082.412.412 0 00-.106.13.383.383 0 00-.037.168l-.005.3c0 .06.01.115.037.17a.535.535 0 00.263.254c.06.027.123.043.191.05h.022a.508.508 0 00.245-.03.393.393 0 00.173-.136c.007-.012.008-.023.013-.034a.069.069 0 00.008-.034.115.115 0 00-.038-.09.155.155 0 00-.095-.047c-.037-.003-.067 0-.083.011-.017.012-.03.031-.045.05a.184.184 0 01-.07.052.282.282 0 01-.097.022l-.026-.003a.274.274 0 01-.096-.028.228.228 0 01-.12-.116.205.205 0 01-.017-.084l.005-.291c0-.027.01-.053.023-.076a.173.173 0 01.048-.058.239.239 0 01.162-.04l.036.004a.41.41 0 01.09.04.205.205 0 01.07.064.277.277 0 00.047.06.136.136 0 00.074.026.137.137 0 00.1-.026.106.106 0 00.041-.085.084.084 0 00-.009-.036c-.004-.013-.007-.024-.013-.033a.474.474 0 00-.167-.167.558.558 0 00-.266-.084zm.724.068a.16.16 0 00-.1.022.104.104 0 00-.045.09l-.013.916c0 .036.013.068.038.094a.17.17 0 00.104.044.129.129 0 00.096-.026.11.11 0 00.045-.085l.005-.3.444.043-.004.299a.13.13 0 00.038.093c.027.026.058.04.091.044a.182.182 0 00.1-.03.106.106 0 00.032-.036c.009-.015.009-.03.01-.046l.013-.917a.12.12 0 00-.042-.094.161.161 0 00-.095-.044.126.126 0 00-.093.026.107.107 0 00-.04.086l-.006.37-.445-.043.006-.369a.133.133 0 00-.042-.093.144.144 0 00-.096-.045zm1.1.104a.132.132 0 00-.097.026.1.1 0 00-.04.082l-.003.163a.462.462 0 00.088.261.523.523 0 00.238.17l-.006.358c0 .034.013.066.038.093.027.026.06.04.1.045a.125.125 0 00.092-.027.11.11 0 00.045-.085l.006-.354a.421.421 0 00.136-.045.361.361 0 00.21-.327l.002-.163a.121.121 0 00-.042-.09.142.142 0 00-.095-.044.132.132 0 00-.097.026.101.101 0 00-.04.082l-.003.163a.146.146 0 01-.059.119.203.203 0 01-.144.037.225.225 0 01-.14-.064.177.177 0 01-.054-.13l.003-.163a.117.117 0 00-.038-.089.153.153 0 00-.1-.044zm1.051.099a.135.135 0 00-.1.025.103.103 0 00-.041.086l-.009.614a.13.13 0 00.038.093c.027.026.06.04.1.045a.141.141 0 00.096-.026.105.105 0 00.04-.086l.01-.614a.123.123 0 00-.039-.093.152.152 0 00-.095-.044zm-3.991-.372a.515.515 0 00-.356.095.412.412 0 00-.106.13.424.424 0 00-.042.171l-.009.606c0 .032.012.057.038.082.027.024.06.04.096.044a.141.141 0 00.096-.026.102.102 0 00.04-.082l.01-.61c0-.027.005-.05.018-.072a.171.171 0 01.049-.058.23.23 0 01.162-.043.258.258 0 01.16.077.18.18 0 01.048.067.205.205 0 01.02.084l-.008.606c0 .033.013.06.038.085a.166.166 0 00.095.04.127.127 0 00.092-.03.097.097 0 00.04-.078l.01-.614a.39.39 0 00-.042-.175.525.525 0 00-.263-.25.567.567 0 00-.187-.05zm-2.46.005l.218.021a.248.248 0 01.204.14.185.185 0 01-.003.155.169.169 0 01-.049.058.216.216 0 01-.158.043l-.218-.02zm6.438 1.284a.133.133 0 00-.101.03.098.098 0 00-.04.081.12.12 0 00.037.09.16.16 0 00.1.048.139.139 0 00.097-.03.1.1 0 00.04-.082.119.119 0 00-.038-.09.158.158 0 00-.095-.047zm-3.736-22.853c-.045.008-.081.036-.106.087a.39.39 0 00-.03.176l.19 1.947a.396.396 0 00.071.161c.033.038.069.054.11.045.044-.011.08-.045.105-.1a.335.335 0 00.025-.181l-.066-.687a.653.653 0 01.061-.304c.044-.089.1-.142.173-.156a.171.171 0 01.109.015c.034.016.067.04.095.076a.402.402 0 01.069.125c.02.047.034.1.04.156l.065.68a.353.353 0 00.07.162c.033.037.068.053.11.045.044-.012.08-.046.105-.1a.335.335 0 00.03-.182l-.067-.693a1.173 1.173 0 00-.083-.342.884.884 0 00-.154-.255.57.57 0 00-.205-.158.393.393 0 00-.232-.023.511.511 0 00-.138.052.357.357 0 00-.124.106l-.043-.44a.31.31 0 00-.067-.167c-.034-.04-.071-.053-.113-.045zm-3.525.68l-.691.134c-.047.009-.082.047-.11.106a.38.38 0 00-.029.188l.186 1.91a.317.317 0 00.063.174c.037.042.078.06.125.051.046-.008.083-.04.109-.094a.382.382 0 00.033-.2l-.059-.572.365-.077c.046-.009.083-.04.109-.094a.359.359 0 00.03-.188.325.325 0 00-.063-.174c-.036-.044-.079-.066-.126-.056l-.364.076-.055-.566.526-.106c.045-.008.083-.04.11-.093a.353.353 0 00.029-.195.313.313 0 00-.067-.173c-.036-.044-.076-.06-.121-.051zm3.061-.015l-.43.085a.299.299 0 00-.14.083.473.473 0 00-.1.148.805.805 0 00-.066.425.798.798 0 00.138.376.38.38 0 00.123.112.23.23 0 00.143.02l.265-.056c.043-.009.07.02.076.088.006.061-.012.096-.055.105l-.445.09c-.042.01-.074.047-.098.106a.346.346 0 00-.026.176.28.28 0 00.063.162c.035.04.071.06.113.05l.446-.09a.32.32 0 00.148-.071.528.528 0 00.108-.148.678.678 0 00.06-.201.752.752 0 00.004-.236.728.728 0 00-.044-.204.636.636 0 00-.093-.155.357.357 0 00-.123-.111.206.206 0 00-.144-.02l-.272.05a.06.06 0 01-.055-.017c-.015-.018-.022-.042-.025-.078a.148.148 0 01.008-.078.078.078 0 01.05-.038l.414-.078c.039-.008.072-.04.098-.094a.356.356 0 00.033-.188.306.306 0 00-.062-.156c-.035-.047-.07-.065-.114-.057zm-1.493.303a.426.426 0 00-.217.12.805.805 0 00-.167.241 1.304 1.304 0 00-.033 1.016c.044.108.097.204.159.28a.653.653 0 00.21.163.331.331 0 00.228.018.576.576 0 00.164-.065.447.447 0 00.134-.15.312.312 0 00.027-.139.317.317 0 00-.023-.132.214.214 0 00-.064-.095.118.118 0 00-.094-.028.096.096 0 00-.045.02 1.313 1.313 0 00-.083.074c-.017.012-.04.015-.065.02-.094.019-.174-.04-.24-.174l.64-.127a.157.157 0 00.114-.076.25.25 0 00.034-.164 1.152 1.152 0 00-.241-.604.602.602 0 00-.21-.163.357.357 0 00-.228-.036zm-.737.154c-.01-.002-.023.004-.035.007a.495.495 0 00-.216.12.762.762 0 00-.164.229c-.044.089-.078.19-.1.305-.02.112-.027.23-.016.351l.07.699c.01.073.033.134.066.173.034.038.07.048.114.04a.15.15 0 00.105-.088.33.33 0 00.034-.17l-.07-.693a.595.595 0 01.053-.316.322.322 0 01.075-.105c.03-.03.065-.05.102-.057.045-.012.08-.042.106-.094a.335.335 0 00-.041-.35c-.025-.03-.051-.048-.083-.051zm.785.34a.172.172 0 01.129.026c.04.024.077.07.112.142l-.442.091a.44.44 0 01.08-.183.213.213 0 01.122-.076zm2.429 4.993a2.572 2.572 0 00-.601.074c-.206.05-.357.113-.452.189a.325.325 0 00-.093.121.62.62 0 00-.057.16.792.792 0 00.01.365.72.72 0 00.062.179.383.383 0 00.1.116.298.298 0 00.257.045.253.253 0 01.028.087c.02.082.039.169.047.258.009.088.015.178.021.268l.025.268c.009.087.023.172.043.254.03.127.073.23.127.304a.49.49 0 00.19.158.488.488 0 00.234.05c.087 0 .177-.011.272-.034a.69.69 0 00.2-.076.287.287 0 00.103-.1.232.232 0 00.036-.115.646.646 0 00-.07-.28.534.534 0 01-.042-.113v-.009l.112-.042.21-.081c.085-.037.176-.094.276-.17a.883.883 0 00.184-.195c.052-.078.094-.163.124-.254s.045-.191.05-.292a1.088 1.088 0 00-.031-.307.936.936 0 00-.16-.348.94.94 0 00-.266-.247 1.263 1.263 0 00-.343-.153 1.745 1.745 0 00-.394-.068 2.355 2.355 0 00-.203-.012zm-1.13 1.088a1.123 1.123 0 00-.205-.232 1.005 1.005 0 00-.69-.27c-.068 0-.136.008-.202.018a1.886 1.886 0 00-.476.128 1.165 1.165 0 00-.225.116.472.472 0 00-.133.136 1.037 1.037 0 00-.173.414 1.263 1.263 0 00-.496-.267 1.707 1.707 0 00-.389-.068 2.276 2.276 0 00-.409-.002 2.65 2.65 0 00-.398.064c-.207.05-.353.113-.448.189a.337.337 0 00-.098.122.62.62 0 00-.07.34.886.886 0 00.023.184.516.516 0 00.162.295.298.298 0 00.257.045.23.23 0 01.033.087c.02.083.034.169.042.259.009.087.015.177.021.268l.025.267c.009.088.023.177.043.259a.83.83 0 00.127.3.504.504 0 00.428.208c.087 0 .177-.012.272-.035a.661.661 0 00.196-.076.287.287 0 00.102-.1.232.232 0 00.037-.115.66.66 0 00-.07-.28.534.534 0 01-.043-.113v-.008l.113-.043.21-.08c.085-.037.18-.095.28-.171a.867.867 0 00.18-.195c.05-.075.09-.157.12-.245l.01.061c.031.13.085.247.16.36a1.008 1.008 0 00.62.453c.13.035.264.036.4.002a.978.978 0 00.447-.241c.129-.118.235-.259.313-.423.078-.166.126-.346.148-.54a1.661 1.661 0 00-.205-.993c-.014-.026-.025-.054-.041-.078zm.997-.94a1.6 1.6 0 01.517.057c.163.042.305.112.424.212a.73.73 0 01.244.406.648.648 0 01.027.184.745.745 0 01-.263.61.967.967 0 01-.233.157c-.08.038-.151.067-.21.09l-.108.042a.25.25 0 00-.086.055.183.183 0 00-.05.085.214.214 0 00-.002.12c.012.044.029.095.053.152a.936.936 0 01.048.122c.013.054.003.09-.033.106a.732.732 0 01-.13.044 1.223 1.223 0 01-.206.032.391.391 0 01-.164-.026c-.045-.024-.084-.062-.117-.111s-.06-.116-.08-.2a2.166 2.166 0 01-.048-.28c-.012-.1-.021-.198-.03-.29-.008-.096-.013-.183-.021-.268a1.493 1.493 0 00-.033-.219c-.01-.042-.026-.082-.043-.118s-.035-.063-.06-.086-.05-.038-.084-.046a.275.275 0 00-.123.003c-.005.001-.013.004-.027.006-.011-.003-.022-.012-.035-.021a.241.241 0 01-.041-.056.672.672 0 01-.063-.359.305.305 0 01.065-.16.378.378 0 01.152-.101c.064-.027.143-.05.235-.073.166-.04.343-.063.526-.068zm-2.125.602c.07-.006.141-.003.207.003a.854.854 0 01.636.382c.077.116.137.26.179.43a1.528 1.528 0 01.015.678 1.46 1.46 0 01-.11.32 1.092 1.092 0 01-.2.278.93.93 0 01-.419.254.593.593 0 01-.294-.004.85.85 0 01-.499-.356.934.934 0 01-.16-.527c.003-.075.01-.143.016-.208l.017-.176a.42.42 0 00-.004-.15.155.155 0 00-.082-.107.22.22 0 00-.138-.031.044.044 0 01-.017 0l-.005-.004-.018-.022a.326.326 0 01.006-.132c.013-.056.027-.113.048-.169a.89.89 0 01.08-.147.3.3 0 01.076-.095 1.762 1.762 0 01.667-.217zm2.444-.07a.77.77 0 00-.118.017.455.455 0 00-.105.038c-.048.028-.075.056-.081.086a.183.183 0 00-.007.062l.014.048a.078.078 0 01.001.022l.006.03a.278.278 0 00.07.134c.02.017.043.03.071.039.03.008.07.007.114-.003a.522.522 0 00.273-.149c.06-.067.083-.126.07-.178a.14.14 0 00-.064-.09.27.27 0 00-.111-.045.495.495 0 00-.133-.01zm.094.223c.02-.002.037 0 .058.002.042 0 .075.01.097.024-.004.012-.016.024-.034.036-.018.013-.038.024-.06.037l-.07.033a.612.612 0 01-.061.02l-.026.005c-.008-.009-.015-.014-.019-.021-.003-.01-.003-.023-.005-.036l-.02-.06a.38.38 0 01.087-.03c.018-.004.034-.008.053-.01zm-4.738.297c.185-.009.36.01.52.055.163.042.301.113.42.213a.73.73 0 01.245.406c.007.03.015.06.02.092.004.03.007.06.007.092a.745.745 0 01-.264.61.967.967 0 01-.233.157c-.08.038-.146.067-.204.09l-.109.042a.272.272 0 00-.09.055.183.183 0 00-.051.085.223.223 0 00.003.119c.011.045.028.095.052.152a.758.758 0 01.043.122c.013.055.003.09-.032.107a.68.68 0 01-.126.043 1.27 1.27 0 01-.21.032.369.369 0 01-.16-.026c-.045-.023-.084-.061-.117-.111s-.06-.116-.08-.2a2.165 2.165 0 01-.048-.28c-.012-.1-.025-.197-.035-.29l-.02-.267a1.496 1.496 0 00-.033-.22.618.618 0 00-.039-.117c-.016-.036-.04-.063-.064-.086s-.051-.039-.084-.046a.264.264 0 00-.12.007h-.03a.094.094 0 01-.036-.02.241.241 0 01-.04-.056.534.534 0 01-.04-.118.685.685 0 01-.024-.241.296.296 0 01.07-.156.383.383 0 01.152-.106c.064-.026.143-.05.235-.072a2.51 2.51 0 01.522-.068zm2.278-.012a.122.122 0 00-.039.015.2.2 0 00-.076.103 1.036 1.036 0 00-.049.292c0 .048.002.087.003.119l.008.11c.004.04.01.086.021.13.016.065.042.12.075.17.033.05.077.067.134.054l.022-.005a.098.098 0 00.025-.018.414.414 0 00.186-.274.772.772 0 000-.343c-.035-.139-.082-.233-.145-.286-.06-.054-.118-.077-.165-.066zm.148.225c.013.013.032.038.055.078s.038.088.052.148l.01.043c.003.013.006.026.006.044a.67.67 0 01.003.08.344.344 0 01-.006.092.328.328 0 01-.105.174.298.298 0 01-.033-.087.973.973 0 01-.022-.303c.002-.058.002-.114.009-.163a.3.3 0 01.032-.106zm-2.107.32a.752.752 0 00-.119.016.448.448 0 00-.104.038c-.049.027-.076.055-.081.086a.156.156 0 00-.003.061l.01.049a.078.078 0 010 .022c.002.007.008.018.01.03a.404.404 0 00.025.07.258.258 0 00.041.065c.02.016.043.028.072.037.03.009.07.007.114-.003a.52.52 0 00.273-.144c.06-.067.082-.13.07-.182a.14.14 0 00-.065-.09.27.27 0 00-.11-.046.495.495 0 00-.133-.01zm.094.22c.019 0 .042.002.062.004a.16.16 0 01.093.023.098.098 0 01-.035.037c-.018.013-.037.023-.06.036l-.065.033a.71.71 0 01-.066.02l-.026.005c-.007-.008-.014-.014-.018-.021-.003-.01-.003-.023-.006-.035l-.015-.061c.01-.003.019-.01.03-.015a.38.38 0 01.053-.015c.017-.004.034-.008.053-.01zm6.38.682a.95.95 0 00-.206.027.677.677 0 00-.204.08.347.347 0 00-.111.105.25.25 0 00-.05.107.288.288 0 00.007.101.41.41 0 00.07.148 1.8 1.8 0 00.245.261c.044.04.079.077.105.12l-.03.015c-.008.001-.013.004-.018.004-.035.009-.071-.015-.107-.067s-.075-.114-.116-.186a3.53 3.53 0 00-.138-.22.583.583 0 00-.163-.176.355.355 0 00-.111-.032 1.275 1.275 0 00-.347.01 1.83 1.83 0 00-.197.036c-.095.023-.18.054-.257.09a.39.39 0 00-.164.124.41.41 0 00-.05.112.96.96 0 00-.03.15l-.005.027c-.01-.008-.017-.016-.027-.022a1.1 1.1 0 00-.44-.146 2.312 2.312 0 00-.567-.01c-.21.017-.42.05-.63.102a2.639 2.639 0 00-.32.097 1.068 1.068 0 00-.225.112.38.38 0 00-.11.122.613.613 0 00-.054.16.912.912 0 00-.013.18c.003.047.013.092.022.136l-.045-.043a1.005 1.005 0 00-.69-.266c-.068 0-.136.009-.202.019a1.743 1.743 0 00-.188.032c-.104.025-.2.058-.287.096-.09.035-.165.07-.226.112a.494.494 0 00-.133.14 1.037 1.037 0 00-.18.467 1.039 1.039 0 00-.391-.306 1.126 1.126 0 00-.367-.086 1.638 1.638 0 00-.465.044c-.112.027-.22.063-.323.106-.103.04-.19.086-.269.13a.394.394 0 00-.137.132 1.15 1.15 0 00-.155.436.62.62 0 00.006.202.293.293 0 00.092.147c.047.041.116.052.204.034l-.008.07c-.004.078-.011.168-.014.274-.001.102.015.217.045.341a1.24 1.24 0 00.464.7 1.083 1.083 0 00.88.165.937.937 0 00.586-.426.895.895 0 00.119-.329.84.84 0 00-.01-.352.65.65 0 00-.118-.252.502.502 0 00-.202-.157.43.43 0 00.167-.14.392.392 0 00.062-.16.445.445 0 00.004-.164l-.01-.057a.286.286 0 00.106.015l-.01.132a9.424 9.424 0 01-.019.265 1.154 1.154 0 00.191.694c.078.112.17.207.277.287.106.077.222.133.348.166a.78.78 0 00.396.001.986.986 0 00.446-.246c.13-.118.235-.258.314-.422.078-.166.126-.346.147-.54a1.661 1.661 0 00-.13-.85c.01 0 .022.007.031.007a.27.27 0 00.08-.012c.015.01.03.035.04.07a.986.986 0 01.04.126c.026.109.05.248.068.411.019.162.03.33.037.51l-.005.026c.003.02.008.043.01.066s.01.049.016.079a.59.59 0 00.057.148c.028.05.07.094.122.128a.476.476 0 00.21.073c.086.01.193 0 .32-.03a.686.686 0 00.316-.168.353.353 0 00.078-.191.854.854 0 00-.009-.163 1.49 1.49 0 00-.026-.14c-.011-.05-.028-.094-.043-.135-.013-.042-.02-.083-.03-.123l.132.168c.08.104.153.193.215.263.06.066.115.116.167.153.054.04.106.066.156.075.052.011.112.01.171-.004a.417.417 0 00.203-.125.867.867 0 00.259-.509c.01-.06.016-.12.013-.176.015.05.03.098.048.144a.771.771 0 00.152.264.48.48 0 00.242.134.825.825 0 00.53-.081.481.481 0 00.125-.092.264.264 0 00.072-.107.223.223 0 00.005-.128.614.614 0 00-.065-.148 11.588 11.588 0 00-.107-.182l-.05-.077c-.019-.033-.038-.061-.056-.091a2.139 2.139 0 00-.046-.096.34.34 0 01-.025-.082c-.003-.015-.001-.028 0-.036.02-.004.039.012.062.043.026.03.052.07.078.125.029.05.056.11.085.174.03.063.062.125.093.186.03.059.06.114.088.165.03.048.058.079.087.099.085.07.2.09.344.056a.8.8 0 00.122-.043.694.694 0 00.212-.125.376.376 0 00.068-.077c.05-.088.088-.19.115-.307.03-.117.044-.242.051-.375a2.708 2.708 0 00-.012-.418 3.459 3.459 0 00-.176-.765 1.532 1.532 0 00-.149-.312.85.85 0 00-.209-.24.488.488 0 00-.276-.111c-.023-.003-.047-.003-.07-.003zm-.163.137a.633.633 0 01.128.01.29.29 0 01.179.087c.075.095.138.207.194.338a2.5 2.5 0 01.14.41 2.806 2.806 0 01.082.75 2.239 2.239 0 01-.043.34.907.907 0 01-.098.266c-.013.024-.046.05-.1.082a.762.762 0 01-.178.071.19.19 0 01-.11-.001.256.256 0 01-.08-.068.855.855 0 01-.074-.117c-.022-.047-.045-.103-.071-.165a2.767 2.767 0 00-.098-.204.74.74 0 00-.106-.173.368.368 0 00-.131-.106.213.213 0 00-.159-.018.198.198 0 00-.138.11.27.27 0 00-.011.19.714.714 0 00.066.169c.033.058.068.116.107.177.038.06.073.12.106.178a.587.587 0 01.066.147.223.223 0 01-.086.086.6.6 0 01-.13.048.794.794 0 01-.193.023c-.064 0-.105-.009-.124-.023a.467.467 0 01-.17-.22 2.502 2.502 0 01-.115-.361 6.896 6.896 0 01-.05-.223l-.046-.219c-.012-.07-.02-.135-.032-.192a2.117 2.117 0 00-.031-.158.657.657 0 00-.104-.252.138.138 0 00-.125-.062.466.466 0 00-.092-.147c0-.04.003-.08.006-.12.004-.045.011-.087.018-.123a.19.19 0 01.029-.076.211.211 0 01.099-.069 1.609 1.609 0 01.332-.084c.053-.01.102-.018.149-.022.046-.002.09 0 .128.001a.245.245 0 01.079.012c.037.022.07.055.1.102.032.045.063.096.092.152.031.053.065.11.097.169a.829.829 0 00.105.146.41.41 0 00.135.098c.05.019.105.023.168.008a.338.338 0 00.117-.052.283.283 0 00.068-.067.212.212 0 00.023-.137.32.32 0 00-.083-.134 1.462 1.462 0 00-.136-.142 4.326 4.326 0 01-.136-.141.351.351 0 01-.079-.139c-.007-.027.012-.05.05-.076a.462.462 0 01.144-.061.611.611 0 01.123-.017zm-2.603.663c.083 0 .16.003.234.012.146.017.27.05.368.104.1.052.159.124.182.219a.41.41 0 01-.017.167.784.784 0 01-.066.17 2.16 2.16 0 01-.194.295 1.161 1.161 0 00-.101.153.148.148 0 00-.014.11.21.21 0 00.069.121.409.409 0 00.134.058.9.9 0 00.154.018c.053.003.105.013.155.022.049.007.09.017.124.036a.128.128 0 01.068.09.546.546 0 01.002.202.777.777 0 01-.072.244l-.038.059a.616.616 0 01-.047.067.544.544 0 01-.064.059.25.25 0 01-.078.037.179.179 0 01-.115-.014.66.66 0 01-.117-.08 1.57 1.57 0 01-.118-.138l-.132-.168-.146-.176a.988.988 0 00-.11-.12.228.228 0 00-.089-.055.142.142 0 00-.088-.005.128.128 0 00-.078.05c-.015.022-.022.045-.028.076s-.009.063-.006.097a2.244 2.244 0 00.056.236c.017.05.03.104.043.161l.03.118a.26.26 0 01-.001.114.178.178 0 01-.059.099.439.439 0 01-.174.075.825.825 0 01-.223.029.315.315 0 01-.133-.032.163.163 0 01-.06-.073.979.979 0 01-.024-.087.592.592 0 01-.016-.114l-.005-.013c-.002-.055-.002-.122-.005-.198a2.914 2.914 0 00-.02-.233 4.117 4.117 0 00-.071-.495.93.93 0 00-.128-.313c-.053-.076-.125-.107-.21-.086l-.025.01c-.005.001-.02-.019-.046-.052s-.049-.082-.066-.152a.59.59 0 01-.016-.263c.018-.068.05-.125.1-.166s.116-.07.192-.093a3.723 3.723 0 01.827-.169 2.68 2.68 0 01.263-.011zm-.046.397c-.02 0-.04.003-.061.006a.674.674 0 00-.114.016c-.02.005-.042.008-.061.015a.177.177 0 00-.044.024l-.034.027-.003.035a.717.717 0 00-.013.15c0 .05.003.094.013.136.01.04.028.07.051.091a.097.097 0 00.084.015c.04-.01.084-.03.135-.06.05-.034.099-.07.142-.11a.608.608 0 00.107-.122c.028-.044.039-.081.032-.11-.008-.033-.027-.054-.06-.07a.275.275 0 00-.106-.036c-.02-.003-.045-.007-.066-.007zm-2.29.22a.838.838 0 01.461.123.88.88 0 01.28.269c.078.115.138.259.18.43.025.104.038.215.04.333a1.439 1.439 0 01-.14.664 1.091 1.091 0 01-.198.278.92.92 0 01-.42.25.587.587 0 01-.295 0 .862.862 0 01-.276-.133 1.003 1.003 0 01-.222-.227.933.933 0 01-.156-.524c.003-.074.006-.142.012-.207l.017-.18a.421.421 0 00-.005-.15.142.142 0 00-.077-.104.233.233 0 00-.142-.03c-.022.005-.034-.005-.04-.03a.349.349 0 01.004-.132c.013-.056.027-.11.048-.165a.949.949 0 01.08-.151.279.279 0 01.08-.09 1.3 1.3 0 01.195-.103c.08-.032.164-.06.253-.082a1.36 1.36 0 01.32-.04zm3.426-.05a.205.205 0 00.083-.002c.006.011.009.025.015.047.004.02.013.047.02.075.032.134.058.267.081.406.022.131.047.262.077.39-.011-.018-.022-.038-.036-.052a.367.367 0 00-.126-.089.507.507 0 00-.15-.044 4.508 4.508 0 00-.151-.022.744.744 0 01-.101-.006.277.277 0 01-.08-.02c.024-.04.058-.092.106-.156.047-.064.095-.136.139-.215a1.42 1.42 0 00.107-.254c.007-.02.011-.039.016-.058zm-1.024.051c.015.001.027.005.04.008a1.426 1.426 0 01-.22.173v-.035c-.002-.018-.003-.037-.002-.053a.107.107 0 01.012-.044.068.068 0 01.043-.028c.027-.007.053-.01.083-.015.015-.003.03-.006.044-.006zm-4.514.463a.92.92 0 01.54.125.678.678 0 01.217.192.596.596 0 01.103.195.868.868 0 01.02.127.216.216 0 010 .101.181.181 0 01-.055.081.381.381 0 01-.122.07.562.562 0 01-.091.033.34.34 0 01-.083.015.064.064 0 01-.04-.016.054.054 0 01-.019-.03.588.588 0 00-.01-.04l-.01-.035a.22.22 0 00-.006-.039c-.005-.022-.014-.047-.024-.078a.245.245 0 00-.046-.087.169.169 0 00-.081-.06.193.193 0 00-.128-.005.202.202 0 00-.108.065.275.275 0 00-.059.111.532.532 0 00-.017.15.88.88 0 00.084.341c.028.049.057.091.092.125s.072.057.107.072a.17.17 0 00.106.01.222.222 0 00.083-.042l.064-.05.06-.05a.682.682 0 01.048-.024.13.13 0 01.04-.019.161.161 0 01.096.01c.034.01.06.027.085.055a.412.412 0 01.074.1.399.399 0 01.047.112.658.658 0 01-.087.522.726.726 0 01-.453.325.852.852 0 01-.694-.126 1.034 1.034 0 01-.25-.257 1.204 1.204 0 01-.179-.571c0-.076.005-.147.008-.211.006-.065.009-.121.013-.172a.38.38 0 00-.004-.137.161.161 0 00-.055-.077c-.029-.03-.075-.038-.137-.023-.013.003-.023.005-.035.01l-.03.015c-.014.003-.02.003-.023 0-.003-.001-.008-.014-.014-.034a.345.345 0 010-.15.69.69 0 01.048-.16.755.755 0 01.067-.134.282.282 0 01.063-.08 1.8 1.8 0 01.235-.113 2.01 2.01 0 01.318-.106c.086-.02.166-.032.24-.037zm2.125-.025c-.013-.002-.028.003-.04.005a.122.122 0 00-.039.015.189.189 0 00-.076.099 1.036 1.036 0 00-.049.292 1.35 1.35 0 00.003.118c.003.031.004.07.007.115.005.04.01.082.021.126.016.065.042.12.076.17.033.05.076.072.133.058l.022-.005a.098.098 0 00.026-.018.43.43 0 00.19-.278.744.744 0 00-.006-.339c-.034-.139-.082-.237-.144-.29a.235.235 0 00-.125-.067zm.107.23a.368.368 0 01.055.077.584.584 0 01.067.188c.003.013.002.03.002.048a.67.67 0 01.003.08.344.344 0 01-.039.18.308.308 0 01-.072.086.357.357 0 01-.019-.039.9.9 0 01-.037-.355c.002-.058.008-.11.014-.159a.313.313 0 01.027-.106zm-1.914.613c.006.004.008.011.01.022.003.01.008.018.01.026l.02.083a.67.67 0 00.048.13.221.221 0 00.1.103l.022.009c-.006.007-.01.016-.017.022-.007.005-.013.006-.017.009a.052.052 0 01-.022.014l-.038.037-.018-.013c-.024-.021-.043-.047-.06-.082s-.028-.076-.038-.118a.462.462 0 01.002-.242z" fill="#A00"/><path style="block-progression:tb;text-indent:0;text-transform:none" d="M86.375 65.49c-.74.062-1.46.228-2.052.798-.79.76-1.366 2.052-1.498 3.093-.132 1.047.187 2.563.764 3.656.578 1.093 1.425 1.768 2.42 2.01 1.968.48 3.568-1.335 3.872-3.941.304-2.606-.794-5.081-2.761-5.561a2.31 2.31 0 00-.745-.056zm.022.42c.225-.02.452-.004.675.05 1.808.441 2.787 2.657 2.505 5.07-.282 2.414-1.71 4.042-3.518 3.602-.892-.218-1.683-.82-2.223-1.84-.54-1.021-.817-2.456-.706-3.332.11-.878.637-2.115 1.374-2.825.553-.533 1.22-.666 1.893-.725z" fill="#A00" color="#000"/><path d="M84.786 81.071c-.014.003-.023.018-.029.044s-.006.052 0 .085l.1.637a.227.227 0 01-.002.089c-.006.024-.015.037-.028.04-.013.002-.025-.008-.039-.028a.238.238 0 01-.028-.084l-.1-.634a.255.255 0 00-.027-.083c-.013-.022-.025-.03-.039-.028-.013.003-.023.014-.028.04a.23.23 0 000 .088l.102.649a.868.868 0 00.082.247.26.26 0 00.056.067c.02.015.04.02.06.017a.084.084 0 00.048-.036.256.256 0 00.036-.072.186.186 0 00.054.06c.02.013.037.017.054.013.02-.003.039-.018.053-.04a.27.27 0 00.033-.087.81.81 0 00.004-.255l-.101-.648a.235.235 0 00-.029-.084c-.013-.022-.026-.03-.039-.028-.013.003-.022.015-.028.04a.227.227 0 00-.001.089l.1.633a.225.225 0 010 .09c-.007.023-.017.037-.03.039-.013.003-.026-.007-.04-.028a.241.241 0 01-.026-.084l-.1-.637a.217.217 0 00-.027-.08c-.013-.022-.026-.034-.04-.032zm-.469.086c-.02.003-.035.017-.049.04a.287.287 0 00-.032.082.541.541 0 00-.013.114.726.726 0 00.042.262.55.55 0 00.047.1c.018.027.036.049.055.064s.039.023.057.02l.049-.008c.011 0 .022.006.033.025.012.017.02.04.025.069a.228.228 0 01-.001.077c-.006.022-.013.033-.025.035l-.127.023c-.015.003-.024.014-.03.04s-.006.053 0 .084a.246.246 0 00.027.084c.013.021.026.03.04.028l.128-.023c.019-.004.034-.019.048-.039a.265.265 0 00.033-.079.781.781 0 00-.03-.376.517.517 0 00-.049-.103.24.24 0 00-.056-.068.125.125 0 00-.054-.017l-.049.009s-.021-.005-.033-.022a.23.23 0 01-.023-.146c.005-.022.012-.037.024-.039l.128-.022c.014-.003.022-.016.028-.04a.22.22 0 000-.085.245.245 0 00-.028-.083c-.013-.022-.025-.03-.038-.028zm.807-.141c-.014.002-.024.017-.029.043a.223.223 0 000 .085l.139.885a.238.238 0 00.028.083c.013.021.027.03.039.028l.204-.035c.013-.003.022-.016.028-.04a.227.227 0 00.001-.089.207.207 0 00-.028-.08c-.013-.022-.025-.03-.039-.028l-.156.028-.034-.214.11-.02c.013-.002.022-.015.028-.039a.221.221 0 000-.085.255.255 0 00-.027-.083c-.013-.022-.026-.03-.038-.028l-.11.019-.032-.202.157-.028c.013-.003.022-.016.028-.04a.232.232 0 00-.026-.168c-.013-.022-.025-.03-.038-.028zm.348-.062c-.014.003-.022.018-.027.044a.222.222 0 000 .085l.138.884a.246.246 0 00.027.084c.013.02.027.03.04.028l.204-.036c.013-.003.023-.016.029-.04a.23.23 0 000-.088.2.2 0 00-.027-.08c-.013-.022-.025-.03-.039-.028l-.158.028-.033-.214.109-.02c.013-.002.022-.015.028-.039a.235.235 0 00-.026-.169c-.013-.021-.026-.03-.038-.028l-.11.02-.032-.203.158-.027c.013-.003.023-.016.029-.04a.22.22 0 000-.085.256.256 0 00-.027-.084c-.013-.022-.025-.03-.039-.028zm.335-.058c-.013.003-.022.014-.028.04a.23.23 0 000 .088.23.23 0 00.026.08c.013.02.026.03.039.028l.08-.014.121.768a.25.25 0 00.028.084c.013.02.026.03.04.028.014-.003.023-.016.028-.04a.23.23 0 000-.089l-.12-.768.08-.015c.014-.003.023-.015.028-.04a.232.232 0 00-.026-.168c-.013-.022-.025-.03-.038-.028zm1.436-.248a.03.03 0 00-.017.01.113.113 0 00-.012.029.227.227 0 00-.006.036c0 .014.002.03.005.045l.031.202c-.029-.027-.057-.036-.086-.03a.093.093 0 00-.061.045.305.305 0 00-.043.1.968.968 0 00.036.471.82.82 0 00.06.132.289.289 0 00.071.08c.025.018.048.026.07.022.024-.004.043-.02.06-.045a.333.333 0 00.04-.103.643.643 0 00.018-.142.963.963 0 00-.012-.167l-.09-.578a.219.219 0 00-.028-.08c-.013-.02-.024-.03-.037-.028zm-.462.35c-.025.005-.046.02-.063.046s-.03.062-.04.104a.746.746 0 00-.016.141c0 .053.003.109.012.167l.05.315c.004.03.012.057.025.077s.027.03.039.028c.013-.002.022-.016.028-.04a.222.222 0 000-.085l-.05-.322a.295.295 0 01.003-.136.141.141 0 01.018-.045.043.043 0 01.028-.02.04.04 0 01.033.01.15.15 0 01.033.04.28.28 0 01.028.06c.009.023.013.047.018.074l.05.315a.21.21 0 00.026.08c.013.018.025.027.038.024.013-.003.021-.019.026-.043a.213.213 0 00.002-.081l-.052-.326a.869.869 0 00-.04-.163.592.592 0 00-.057-.12.252.252 0 00-.07-.077c-.024-.017-.048-.026-.07-.022zm-.387.076c-.036.006-.064.033-.085.084a.583.583 0 00-.034.2c0 .027 0 .055.002.083.002.029.006.057.01.087a.81.81 0 00.041.17.56.56 0 00.093.173c.036.042.071.06.107.054a.08.08 0 00.038-.018.163.163 0 00.03-.036l.003-.009c.001-.004.004-.005.006-.008.015.035.031.052.048.049.011-.002.02-.015.027-.04a.221.221 0 000-.084l-.049-.311a.945.945 0 00-.088-.274.346.346 0 00-.064-.089.112.112 0 00-.067-.035l-.01.002-.008.001zm.035.23c.01-.002.021 0 .032.01a.136.136 0 01.033.04.351.351 0 01.046.13.384.384 0 01-.003.147.143.143 0 01-.02.046c-.008.011-.016.018-.027.02-.01.002-.02 0-.031-.01a.161.161 0 01-.033-.04.315.315 0 01-.047-.135.321.321 0 01.02-.189.043.043 0 01.029-.02zm.766-.135c.01-.002.02 0 .031.01a.1.1 0 01.032.037c.01.016.02.036.029.06a.473.473 0 01.024.15.269.269 0 01-.028.117.04.04 0 01-.027.02.042.042 0 01-.034-.01.161.161 0 01-.033-.04.407.407 0 01-.045-.135.42.42 0 01.002-.14.17.17 0 01.019-.05.043.043 0 01.03-.02zm-2.102 1.297c-.013.003-.024.015-.03.04a.221.221 0 00.001.084l.14.893a.261.261 0 00.026.084c.013.02.027.03.04.027.013-.003.023-.016.029-.04a.227.227 0 00.001-.088l-.024-.154.058-.01.133.22c.013.021.027.03.04.027.013-.003.023-.015.028-.04a.23.23 0 000-.088.247.247 0 00-.027-.08l-.075-.122a.476.476 0 00.036-.16.875.875 0 00-.012-.218.904.904 0 00-.098-.295.277.277 0 00-.07-.08c-.025-.019-.048-.026-.072-.022zm-.247.047c-.026.004-.048.016-.065.042s-.03.062-.04.104a.746.746 0 00-.016.141c0 .053.003.109.012.167l.045.29a.815.815 0 00.098.286.275.275 0 00.07.077.096.096 0 00.072.018l.006-.001c.032-.006.057-.028.076-.068a.44.44 0 00.037-.156v-.035c0-.011 0-.022-.002-.034a.212.212 0 00-.029-.08c-.013-.022-.026-.034-.039-.032a.03.03 0 00-.024.024c-.005.014-.006.034-.009.055a.218.218 0 01-.015.06.093.093 0 01-.03.037l-.008.001c-.013.002-.024-.004-.036-.013a.135.135 0 01-.033-.037.284.284 0 01-.026-.057.542.542 0 01-.017-.078l-.044-.28a.463.463 0 01-.006-.077c.001-.024.003-.045.008-.063s.011-.03.02-.042a.041.041 0 01.028-.02l.013-.003a.1.1 0 01.035.025c.011.013.023.03.033.052l.026.049c.009.011.019.016.03.014.012-.003.021-.014.027-.04a.227.227 0 00-.007-.121l-.01-.03a.406.406 0 00-.082-.135.135.135 0 00-.063-.04.078.078 0 00-.037 0zm.634-.111c-.013.001-.021.013-.028.035a.214.214 0 00-.002.082l.092.585c.01.058.023.112.04.162.016.05.036.093.057.129.022.036.044.062.069.08s.049.026.074.022a.099.099 0 00.06-.042.292.292 0 00.043-.096.648.648 0 00.017-.138.975.975 0 00-.011-.167l-.093-.592a.192.192 0 00-.026-.077c-.012-.02-.025-.029-.038-.028-.013.003-.022.013-.028.036a.21.21 0 00-.002.081l.092.585c.005.027.006.05.006.076a.243.243 0 01-.009.067.143.143 0 01-.019.046.041.041 0 01-.028.02.043.043 0 01-.033-.01.117.117 0 01-.03-.033.334.334 0 01-.046-.13l-.092-.59a.192.192 0 00-.026-.076c-.013-.022-.027-.03-.039-.028zm.907-.16c-.025.005-.047.017-.065.043s-.03.062-.04.103a.746.746 0 000 .309l.045.289a.816.816 0 00.098.287.27.27 0 00.068.076.096.096 0 00.072.019l.007-.002c.032-.005.057-.027.077-.067a.44.44 0 00.036-.157v-.034a.127.127 0 00-.004-.034.203.203 0 00-.026-.08c-.013-.022-.027-.034-.04-.032-.013.003-.022.01-.026.024s-.004.034-.007.055a.218.218 0 01-.015.06.093.093 0 01-.03.036l-.008.002c-.013.001-.025-.005-.036-.013a.135.135 0 01-.033-.037.284.284 0 01-.026-.057.518.518 0 01-.018-.078l-.044-.281c-.005-.026-.005-.052-.005-.076a.3.3 0 01.008-.063.11.11 0 01.018-.042.044.044 0 01.03-.02c.004-.001.008-.003.011-.002a.11.11 0 01.037.024c.011.013.024.03.033.052.009.02.016.037.025.05.009.011.018.016.029.014.013-.003.024-.014.03-.04a.226.226 0 00-.01-.121.404.404 0 00-.091-.165.135.135 0 00-.062-.04.08.08 0 00-.039 0zm.253-.044c-.013.003-.023.013-.03.037a.212.212 0 00-.002.092l.14.885a.247.247 0 00.027.084c.013.02.027.03.042.027.013-.003.022-.016.028-.04a.227.227 0 00.001-.088l-.045-.289.155-.027.045.289a.254.254 0 00.028.083c.013.021.025.03.037.028.006 0 .011-.007.016-.014a.091.091 0 00.013-.03.206.206 0 000-.085l-.139-.884a.214.214 0 00-.029-.083c-.013-.02-.026-.03-.038-.028-.012.001-.021.014-.027.04a.23.23 0 000 .088l.056.356-.155.027-.056-.356a.228.228 0 00-.029-.084c-.013-.022-.025-.03-.038-.028zm.383-.067c-.013.003-.022.015-.028.04a.22.22 0 00-.001.085l.025.157a.977.977 0 00.07.238.438.438 0 00.05.08.19.19 0 00.056.048l.054.345a.257.257 0 00.027.084c.013.02.027.03.04.028.014-.003.022-.016.027-.04a.227.227 0 00.002-.089l-.054-.34a.177.177 0 00.038-.065.364.364 0 00.025-.093.971.971 0 00-.004-.253l-.025-.158a.22.22 0 00-.028-.08c-.013-.022-.025-.03-.04-.028-.012.003-.021.015-.027.04a.22.22 0 00-.001.085l.025.157a.33.33 0 01-.001.124c-.009.034-.023.054-.043.057-.02.003-.038-.011-.056-.04a.324.324 0 01-.039-.116l-.024-.158a.208.208 0 00-.027-.08c-.013-.022-.026-.03-.04-.028zm.366-.064c-.014.003-.024.015-.03.04a.23.23 0 000 .089l.094.592a.245.245 0 00.027.084c.013.02.026.03.04.027.013-.001.022-.015.028-.04a.23.23 0 000-.088l-.093-.592a.238.238 0 00-.027-.084c-.013-.022-.026-.03-.039-.028zm-1.39.248c-.025.004-.046.02-.063.046s-.031.058-.04.099a.746.746 0 00-.016.141c0 .054.004.113.013.172l.092.584a.18.18 0 00.025.073c.013.02.027.03.039.028.013-.002.022-.016.028-.04a.222.222 0 000-.085l-.092-.588a.42.42 0 01.002-.136.143.143 0 01.019-.045.043.043 0 01.028-.02.04.04 0 01.033.01.242.242 0 01.06.097c.007.023.015.05.019.077l.092.585a.178.178 0 00.026.077c.013.018.025.026.038.024.013-.003.02-.02.026-.043a.213.213 0 00.001-.082l-.093-.592a.85.85 0 00-.1-.287.25.25 0 00-.068-.076.089.089 0 00-.07-.019zm-.82.379l.076-.013c.01-.002.021 0 .033.01.011.007.02.02.03.037a.334.334 0 01.044.131.473.473 0 01.006.076c0 .023-.003.044-.007.063s-.01.033-.018.045c-.009.012-.017.019-.028.02l-.076.014zm2.35.258c-.015.003-.024.018-.03.043s-.005.052 0 .085a.198.198 0 00.026.08c.013.022.027.034.041.032.013-.002.022-.019.028-.044a.222.222 0 000-.085.217.217 0 00-.026-.08c-.013-.022-.027-.033-.04-.031zm.506-21.694c-.028.003-.052.023-.072.063a.428.428 0 00-.037.143l-.092 1.626c.002.056.01.103.025.14.016.033.036.05.061.046.028-.006.054-.03.074-.073a.372.372 0 00.035-.148l.033-.574a.706.706 0 01.069-.246c.036-.069.076-.108.12-.113a.08.08 0 01.064.022c.02.017.036.04.05.071a.4.4 0 01.028.11c.007.04.01.085.007.132l-.033.568a.35.35 0 00.025.14c.016.034.035.05.061.047.028-.006.054-.03.074-.073a.371.371 0 00.037-.148l.034-.579a1.364 1.364 0 00-.013-.29.86.86 0 00-.066-.225.397.397 0 00-.106-.148.182.182 0 00-.137-.04.264.264 0 00-.175.108l.02-.367a.329.329 0 00-.021-.145c-.016-.035-.038-.05-.064-.047zm-2.192.25l-.43.05c-.029.004-.054.032-.076.079a.422.422 0 00-.038.153l-.091 1.595a.344.344 0 00.02.149c.017.038.04.057.069.053.029-.003.054-.025.076-.068a.422.422 0 00.04-.163l.026-.478.227-.031c.03-.003.055-.026.076-.068a.397.397 0 00.038-.153.349.349 0 00-.02-.149c-.016-.04-.04-.061-.069-.058l-.227.031.027-.473.327-.04c.028-.003.055-.026.076-.068a.389.389 0 00.038-.158.335.335 0 00-.021-.15c-.017-.04-.04-.056-.068-.052zm1.843.26l-.268.031a.173.173 0 00-.093.056c-.029.029-.053.067-.076.114s-.042.1-.057.16a1.044 1.044 0 00-.02.363.67.67 0 00.036.146.296.296 0 00.063.103.108.108 0 00.084.029l.165-.023c.027-.003.04.023.036.08-.003.05-.017.078-.044.081l-.277.036c-.027.006-.05.032-.07.079a.385.385 0 00-.014.282c.017.036.037.055.063.052l.277-.036a.172.172 0 00.097-.045.449.449 0 00.08-.113.905.905 0 00.085-.355.633.633 0 00-.045-.309.267.267 0 00-.062-.103.097.097 0 00-.084-.03l-.169.018c-.012.001-.023-.004-.031-.019a.14.14 0 01-.007-.066.15.15 0 01.014-.064c.01-.016.022-.026.034-.027l.257-.028c.024-.003.048-.026.07-.069a.396.396 0 00.04-.153.323.323 0 00-.022-.133c-.015-.043-.035-.061-.062-.058zm-.93.117a.244.244 0 00-.143.081.703.703 0 00-.126.184 1.49 1.49 0 00-.127.837c.014.093.036.177.065.245.03.066.067.117.109.153.042.035.087.045.135.035a.306.306 0 00.106-.039.346.346 0 00.097-.111.346.346 0 00.03-.113.365.365 0 000-.112.19.19 0 00-.028-.084c-.014-.021-.032-.031-.053-.03a.055.055 0 00-.03.01.485.485 0 00-.029.028.144.144 0 01-.028.027.09.09 0 01-.042.01c-.058.008-.1-.049-.126-.165l.4-.048c.028-.002.055-.019.076-.053a.271.271 0 00.037-.133 1.262 1.262 0 00-.014-.285.925.925 0 00-.067-.235.42.42 0 00-.108-.153c-.042-.037-.086-.056-.134-.05zm-.46.062c-.006-.001-.014.002-.021.003a.284.284 0 00-.143.081.654.654 0 00-.123.174 1.23 1.23 0 00-.092.244c-.024.09-.04.187-.048.288l-.032.584a.362.362 0 00.022.15c.016.033.037.045.064.042.03-.003.054-.026.073-.064a.362.362 0 00.038-.137l.032-.58a.656.656 0 01.065-.255.28.28 0 01.056-.08.12.12 0 01.067-.039c.029-.005.053-.027.074-.068a.371.371 0 00.012-.292c-.011-.029-.025-.045-.044-.05zm.437.35c.028-.002.052.01.074.034a.263.263 0 01.052.127l-.275.037a.434.434 0 01.068-.145c.024-.03.052-.049.08-.052zm.58 4.81a1.153 1.153 0 00-.364.058.629.629 0 00-.274.154.27.27 0 00-.056.1.642.642 0 00-.033.134.856.856 0 00.009.304.75.75 0 00.039.149.32.32 0 00.061.097.144.144 0 00.156.04 1.995 1.995 0 01.048.288c.006.073.01.148.015.223l.017.223c.006.073.015.144.027.212.02.106.046.193.08.255a.35.35 0 00.116.132c.044.03.09.045.143.044a.532.532 0 00.165-.027c.051-.017.092-.037.121-.062s.05-.052.062-.083a.252.252 0 00.021-.095.744.744 0 00-.044-.233.52.52 0 01-.027-.095v-.008l.068-.035.127-.065a.778.778 0 00.277-.302 1.04 1.04 0 00.102-.453 1.24 1.24 0 00-.02-.256.954.954 0 00-.1-.291.71.71 0 00-.163-.208.816.816 0 00-.45-.189.814.814 0 00-.122-.011zm-.68.899a.927.927 0 00-.126-.195.649.649 0 00-.194-.17.473.473 0 00-.35-.045.923.923 0 00-.425.199.356.356 0 00-.079.112.976.976 0 00-.102.344.658.658 0 00-.094-.096.795.795 0 00-.446-.189 1.022 1.022 0 00-.249-.005 1.195 1.195 0 00-.242.051.618.618 0 00-.27.155.277.277 0 00-.06.1.651.651 0 00-.039.284.992.992 0 00.015.153.498.498 0 00.1.247.144.144 0 00.157.04.228.228 0 01.02.072c.014.069.022.14.028.216.006.073.01.147.015.223l.017.223c.005.073.015.147.027.216.02.105.046.189.08.25a.352.352 0 00.115.133c.044.03.093.045.146.043a.532.532 0 00.165-.026.341.341 0 00.118-.062.212.212 0 00.062-.083.252.252 0 00.022-.096.744.744 0 00-.044-.233.52.52 0 01-.028-.095v-.007l.069-.035.126-.066a.791.791 0 00.17-.14.673.673 0 00.108-.161c.03-.063.054-.13.072-.204.003.017.003.034.007.051.02.108.053.207.1.302a.99.99 0 00.167.244c.064.065.135.11.212.137.079.03.16.031.243.005a.558.558 0 00.27-.199c.078-.097.141-.214.188-.35a1.82 1.82 0 00.086-.45 1.882 1.882 0 00-.027-.483 1.578 1.578 0 00-.103-.345c-.009-.022-.016-.045-.026-.065zm.601-.776a.748.748 0 01.314.05c.1.035.186.095.26.18a.689.689 0 01.15.34l.014.076c.002.026.004.05.004.077a.816.816 0 01-.042.302.666.666 0 01-.255.333 1.545 1.545 0 01-.127.074l-.066.035a.162.162 0 00-.082.116.25.25 0 000 .099c.008.037.018.08.034.127a.943.943 0 01.03.102c.008.045.002.075-.02.088a.56.56 0 01-.204.06.186.186 0 01-.1-.022c-.027-.02-.051-.051-.072-.093s-.037-.097-.05-.167a2.234 2.234 0 01-.03-.234 7.815 7.815 0 01-.02-.241c-.007-.08-.01-.153-.015-.224a1.774 1.774 0 00-.021-.182.783.783 0 00-.027-.099.253.253 0 00-.037-.072.105.105 0 00-.052-.039.12.12 0 00-.075.002c-.003 0-.008.004-.016.004a.057.057 0 01-.022-.018.179.179 0 01-.025-.047.794.794 0 01-.041-.3.3.3 0 01.039-.132c.022-.036.052-.062.09-.084s.088-.04.144-.059c.1-.032.208-.05.319-.053zm-1.288.487a.52.52 0 01.126.005c.08.011.153.044.22.1a.655.655 0 01.168.222c.049.097.086.217.112.36a1.759 1.759 0 01.014.564 1.38 1.38 0 01-.065.266.937.937 0 01-.12.23.55.55 0 01-.253.21.265.265 0 01-.179-.006.483.483 0 01-.169-.109.789.789 0 01-.136-.19.959.959 0 01-.082-.251 1.11 1.11 0 01-.019-.19c.001-.062.006-.119.009-.173l.009-.147a.498.498 0 00-.003-.124.134.134 0 00-.051-.09.108.108 0 00-.084-.028c-.004.002-.007.002-.01 0 0 0-.001-.002-.003-.002l-.011-.018a.361.361 0 01.003-.11 1.3 1.3 0 01.028-.14.91.91 0 01.047-.123.244.244 0 01.046-.078.876.876 0 01.404-.176zm1.485-.042a.266.266 0 00-.135.044c-.03.023-.046.046-.049.071a.174.174 0 00-.004.052l.008.04c.002.005.001.011.001.018l.003.026a.25.25 0 00.043.112.125.125 0 00.044.032.105.105 0 00.07-.002.3.3 0 00.164-.122c.036-.055.05-.104.042-.148a.121.121 0 00-.04-.075c-.02-.02-.043-.032-.068-.039s-.052-.011-.08-.008zm.059.186a.142.142 0 01.035.002.09.09 0 01.059.02.071.071 0 01-.02.03l-.037.031-.042.027c-.015.007-.027.013-.037.016l-.016.004-.012-.018-.002-.03-.012-.05c.006-.002.014-.008.021-.012a.15.15 0 01.032-.011c.01-.003.02-.008.032-.01zm-2.879.217a.761.761 0 01.317.05c.1.035.184.095.257.18a.689.689 0 01.151.34l.013.076a.65.65 0 01.004.077.816.816 0 01-.042.302.666.666 0 01-.255.334 1.529 1.529 0 01-.124.073l-.065.035a.175.175 0 00-.055.045.165.165 0 00-.03.07.259.259 0 00.002.1c.008.037.018.079.034.127.014.046.022.079.027.102.008.045.002.075-.02.088a.36.36 0 01-.076.036.573.573 0 01-.127.025.175.175 0 01-.097-.023c-.028-.02-.052-.051-.073-.093s-.037-.097-.05-.167a2.234 2.234 0 01-.03-.234c-.008-.084-.017-.164-.023-.242-.006-.08-.009-.152-.015-.223a1.774 1.774 0 00-.021-.183.917.917 0 00-.024-.098c-.01-.03-.025-.053-.04-.072s-.031-.032-.051-.039c-.02-.007-.044-.003-.072.006h-.02a.057.057 0 01-.021-.017.179.179 0 01-.025-.047.608.608 0 01-.025-.099.788.788 0 01-.016-.2c.004-.053.02-.095.042-.13s.052-.066.09-.087.088-.041.144-.06c.1-.032.205-.05.316-.052zm1.385.004a.111.111 0 00-.023.012.168.168 0 00-.046.085.934.934 0 00-.028.243c0 .04.001.073.003.1l.006.09c.003.035.007.073.014.11.01.054.026.1.047.142s.047.057.081.045l.013-.004a.36.36 0 00.127-.242.863.863 0 00-.003-.286.522.522 0 00-.09-.24c-.037-.044-.071-.064-.1-.055zm.091.188c.009.01.02.032.034.065a.578.578 0 01.033.124l.006.037c.001.01.004.02.004.036.002.02.003.042.002.066a.386.386 0 01-.003.077.306.306 0 01-.063.145l-.012-.033c-.004-.011-.005-.023-.008-.04a1.249 1.249 0 01-.016-.252c0-.049 0-.095.004-.136a.343.343 0 01.02-.088zm-1.279.253a.266.266 0 00-.135.044c-.029.023-.045.046-.048.071a.15.15 0 00-.002.052l.006.04v.018c.002.006.005.015.006.026a.393.393 0 00.016.058c.007.02.014.038.025.054a.125.125 0 00.044.032.105.105 0 00.07-.002c.073-.023.128-.062.164-.118s.05-.108.041-.152a.121.121 0 00-.04-.075c-.019-.02-.042-.032-.067-.039s-.052-.011-.08-.008zm.06.185a.18.18 0 01.037.003c.025 0 .043.007.057.02a.071.071 0 01-.021.03c-.012.01-.023.02-.037.03a.383.383 0 01-.039.027.23.23 0 01-.04.016l-.015.004c-.005-.007-.01-.013-.012-.018l-.003-.029-.01-.05c.006-.002.012-.008.018-.012a.15.15 0 01.032-.012c.01-.003.02-.007.032-.009zm3.882.609c-.014 0-.028.003-.042.004a.38.38 0 00-.083.017.347.347 0 00-.124.066.252.252 0 00-.067.086.25.25 0 00-.03.089.418.418 0 00.05.208 1.503 1.503 0 00.15.219.449.449 0 01.065.1l-.018.012-.01.005c-.021.007-.044-.013-.066-.057a2.351 2.351 0 01-.071-.156 3.28 3.28 0 00-.086-.184.47.47 0 00-.1-.148.19.19 0 00-.068-.027.481.481 0 00-.21.006.72.72 0 00-.276.103.255.255 0 00-.098.101.422.422 0 00-.03.093 1.011 1.011 0 00-.017.125l-.002.022c-.006-.005-.01-.013-.016-.018a.569.569 0 00-.269-.124 1.022 1.022 0 00-.345-.012 1.85 1.85 0 00-.383.081 1.28 1.28 0 00-.192.079.59.59 0 00-.137.092.295.295 0 00-.067.1.645.645 0 00-.03.134.742.742 0 00.008.263l-.028-.036a.635.635 0 00-.194-.166.475.475 0 00-.349-.046.63.63 0 00-.114.026.927.927 0 00-.174.078.637.637 0 00-.137.092.375.375 0 00-.08.116.976.976 0 00-.105.388.669.669 0 00-.24-.257.545.545 0 00-.224-.075.73.73 0 00-.283.034c-.067.022-.133.05-.195.086a1.09 1.09 0 00-.163.107.28.28 0 00-.082.109 1.14 1.14 0 00-.091.362.71.71 0 00.004.168.28.28 0 00.057.124c.029.034.07.044.124.029l-.005.059a6.239 6.239 0 00-.007.227 1.511 1.511 0 00.135.609c.05.102.11.19.181.262a.599.599 0 00.245.147.46.46 0 00.291-.004.487.487 0 00.208-.13.729.729 0 00.146-.221.922.922 0 00.07-.273.95.95 0 00-.01-.293.658.658 0 00-.072-.211.35.35 0 00-.124-.132c.047-.033.08-.073.1-.117s.033-.087.037-.133a.536.536 0 00.002-.135l-.007-.048a.15.15 0 00.064.013l-.004.11-.01.22a1.189 1.189 0 00.12.58.97.97 0 00.17.24.583.583 0 00.213.142.36.36 0 00.24.004.565.565 0 00.27-.202c.078-.098.141-.214.188-.35a1.82 1.82 0 00.086-.45 1.882 1.882 0 00-.084-.709c.006.002.013.007.019.007.02 0 .035-.004.048-.008.01.007.018.03.025.058a.954.954 0 01.025.105c.017.092.032.207.044.344.012.134.02.275.026.424l-.002.023.007.054c.002.02.006.041.01.066.008.04.019.081.036.124a.29.29 0 00.075.107.25.25 0 00.128.063.423.423 0 00.194-.024.35.35 0 00.119-.062.264.264 0 00.108-.16.553.553 0 00.01-.074 1.4 1.4 0 00-.024-.252c-.006-.042-.017-.08-.026-.114-.01-.034-.013-.069-.02-.102l.082.14c.05.088.094.163.132.22a.861.861 0 00.103.13.225.225 0 00.095.063.184.184 0 00.104-.003.248.248 0 00.123-.102.74.74 0 00.101-.19.992.992 0 00.053-.233c.005-.05.008-.1.007-.146l.03.12a.743.743 0 00.094.22.293.293 0 00.148.114c.061.02.136.015.227-.015a.422.422 0 00.095-.05.31.31 0 00.118-.165.262.262 0 00.003-.106.63.63 0 00-.041-.124l-.066-.152-.031-.065-.034-.076-.03-.08a.354.354 0 01-.015-.069c-.003-.013 0-.023 0-.03.011-.004.024.01.038.036a2.31 2.31 0 01.101.25l.058.156c.018.05.037.096.054.138.019.04.036.067.053.083.053.06.123.077.21.05a.349.349 0 00.074-.036.414.414 0 00.128-.103.299.299 0 00.041-.063c.03-.073.052-.158.068-.255a2.23 2.23 0 00.028-.313 2.92 2.92 0 00-.01-.348 3.576 3.576 0 00-.111-.638 1.54 1.54 0 00-.093-.261.708.708 0 00-.129-.202.266.266 0 00-.168-.094l-.043-.003zm-.098.112a.304.304 0 01.078.01c.05.012.086.036.109.073.046.08.085.173.12.283a3.147 3.147 0 01.143.968 2.52 2.52 0 01-.025.282.936.936 0 01-.058.222.18.18 0 01-.06.068.39.39 0 01-.107.058.088.088 0 01-.067-.002.177.177 0 01-.05-.057.798.798 0 01-.045-.098 7.87 7.87 0 01-.044-.138c-.02-.06-.04-.116-.061-.17a.706.706 0 00-.066-.145.262.262 0 00-.08-.09.1.1 0 00-.097-.015c-.039.013-.066.043-.083.09a.303.303 0 00-.005.158c.008.043.02.091.041.142a3.6 3.6 0 00.066.148l.066.149c.02.046.034.086.04.123a.16.16 0 01-.051.071.35.35 0 01-.196.057c-.039 0-.064-.008-.076-.02a.404.404 0 01-.104-.184 2.735 2.735 0 01-.073-.302 7.187 7.187 0 01-.032-.186l-.029-.183-.02-.16a1.953 1.953 0 00-.02-.132.682.682 0 00-.065-.21c-.02-.039-.047-.056-.077-.053a.431.431 0 00-.057-.124 1.737 1.737 0 01.013-.202.2.2 0 01.017-.062c.01-.021.03-.04.06-.057s.067-.03.106-.043a.787.787 0 01.096-.025.523.523 0 01.09-.017c.028-.003.055 0 .078.001a.12.12 0 01.048.01c.023.02.043.046.061.086a9.957 9.957 0 01.117.268c.02.047.041.087.065.123s.052.064.083.082c.03.017.064.02.102.009a.192.192 0 00.112-.099.237.237 0 00.013-.114.3.3 0 00-.051-.112 1.147 1.147 0 00-.084-.118l-.084-.119a.338.338 0 01-.048-.116c-.005-.023.007-.042.03-.063a.244.244 0 01.161-.063zm-1.578.537c.05 0 .097.002.142.01a.515.515 0 01.224.089.28.28 0 01.112.183.779.779 0 01-.049.28 1.94 1.94 0 01-.116.246 1.053 1.053 0 00-.06.126.167.167 0 00-.01.092.204.204 0 00.044.101c.023.021.051.04.081.05.031.01.062.012.095.015a.508.508 0 01.094.02.18.18 0 01.075.03c.022.015.036.04.043.076a.583.583 0 01.001.168.795.795 0 01-.042.203l-.023.049a.446.446 0 01-.028.055.419.419 0 01-.038.05.146.146 0 01-.048.03c-.022.007-.046.001-.07-.013a.445.445 0 01-.071-.068 1.319 1.319 0 01-.073-.115l-.081-.14-.09-.148a.835.835 0 00-.067-.101.14.14 0 00-.055-.046.064.064 0 00-.053-.006.079.079 0 00-.047.042.22.22 0 00-.017.063.492.492 0 00.007.153c.007.04.015.081.025.124.011.043.019.087.028.135l.019.099a.265.265 0 010 .095.165.165 0 01-.035.082.234.234 0 01-.106.061.375.375 0 01-.135.023.159.159 0 01-.081-.027.141.141 0 01-.037-.062.857.857 0 01-.015-.073.499.499 0 01-.01-.095l-.003-.011a19.516 19.516 0 01-.005-.165c-.001-.063-.007-.126-.013-.194a4.797 4.797 0 00-.046-.413.967.967 0 00-.08-.262c-.032-.064-.076-.09-.127-.073l-.016.007c-.003.001-.012-.016-.028-.043a.4.4 0 01-.041-.127.668.668 0 01-.012-.22.278.278 0 01.06-.137.309.309 0 01.116-.077 1.692 1.692 0 01.662-.144zm-.026.33c-.013 0-.024.003-.037.005a.297.297 0 00-.07.013c-.01.004-.025.005-.036.011a.111.111 0 00-.026.02l-.021.022-.002.03a.864.864 0 00.002.237.162.162 0 00.031.077c.016.014.032.019.052.013a.251.251 0 00.081-.05.782.782 0 00.086-.09.481.481 0 00.064-.102.156.156 0 00.018-.092.079.079 0 00-.036-.057.144.144 0 00-.065-.032.195.195 0 00-.04-.005zm-1.39.168a.431.431 0 01.281.106c.065.053.124.13.172.226.048.096.085.217.112.36.016.087.024.18.026.278.003.095-.003.188-.016.282a1.416 1.416 0 01-.064.27.937.937 0 01-.12.23.54.54 0 01-.253.206.26.26 0 01-.18-.003.495.495 0 01-.168-.112.788.788 0 01-.137-.191.959.959 0 01-.098-.437c.002-.062.003-.119.006-.173.005-.054.006-.105.009-.15a.497.497 0 00-.003-.125c-.007-.041-.022-.068-.048-.086a.113.113 0 00-.086-.027c-.013.004-.021-.005-.025-.025a.361.361 0 01.003-.11.955.955 0 01.075-.263.216.216 0 01.049-.074.73.73 0 01.271-.151.6.6 0 01.194-.031zm2.082-.019a.087.087 0 00.05-.001c.003.01.006.021.009.04l.013.062c.02.112.037.223.052.34.015.108.03.217.05.324-.008-.015-.015-.031-.023-.043a.245.245 0 00-.077-.075.254.254 0 00-.092-.038l-.091-.019a.282.282 0 01-.062-.006.152.152 0 01-.049-.017c.015-.033.035-.077.063-.13s.057-.113.084-.178a1.436 1.436 0 00.072-.259zm-.622.036c.008 0 .016.005.024.007a.915.915 0 01-.132.143l-.001-.029a.456.456 0 01-.001-.044c0-.013.002-.026.007-.036a.04.04 0 01.026-.023c.016-.006.032-.009.05-.013.009-.002.018-.004.027-.004zm-2.741.357a.449.449 0 01.33.108.586.586 0 01.21.43.266.266 0 01-.002.084.168.168 0 01-.033.067.224.224 0 01-.073.057.302.302 0 01-.106.04c-.011 0-.018-.007-.024-.014a.05.05 0 01-.012-.025l-.006-.033-.005-.03a.324.324 0 00-.003-.032c-.003-.019-.009-.04-.015-.066a.27.27 0 00-.03-.072.113.113 0 00-.049-.05c-.02-.013-.046-.015-.077-.006a.122.122 0 00-.066.053.261.261 0 00-.034.093.665.665 0 00.004.264c.01.053.023.102.039.145.017.04.035.077.056.105s.045.048.066.06a.077.077 0 00.065.009.135.135 0 00.05-.034l.038-.042.037-.041.029-.02a.076.076 0 01.023-.015.078.078 0 01.06.01c.02.008.036.022.051.045a.457.457 0 01.075.177.74.74 0 01.009.228.672.672 0 01-.171.375.4.4 0 01-.388.106.518.518 0 01-.196-.116.821.821 0 01-.153-.215 1.366 1.366 0 01-.112-.477c0-.064.001-.123.003-.177l.007-.143a.48.48 0 00-.003-.113.143.143 0 00-.034-.065c-.017-.026-.046-.032-.083-.02-.008.003-.015.003-.022.007l-.018.012c-.007.003-.011.001-.013 0a.096.096 0 01-.009-.029.382.382 0 010-.125.735.735 0 01.028-.132.786.786 0 01.04-.112.23.23 0 01.038-.067.97.97 0 01.142-.092.978.978 0 01.192-.086.649.649 0 01.146-.03zm1.29-.008a.052.052 0 00-.023.005.111.111 0 00-.024.011.155.155 0 00-.046.082.935.935 0 00-.027.243c-.001.04 0 .073.002.1l.006.094c.003.034.007.069.013.106.01.054.027.1.047.142s.047.06.082.049l.013-.004a.373.373 0 00.13-.246.84.84 0 00-.007-.282.539.539 0 00-.09-.243c-.027-.034-.053-.054-.076-.057zm.068.193a.56.56 0 01.07.189c0 .01.004.02.005.032a.932.932 0 010 .183.316.316 0 01-.02.075.255.255 0 01-.043.07l-.012-.032c-.004-.012-.005-.027-.008-.044a1.143 1.143 0 01-.016-.253c0-.048.003-.09.007-.132s.009-.07.016-.088zm-1.16.498c.005.003.005.01.006.019l.006.021.013.07a.789.789 0 00.03.109.176.176 0 00.061.086l.013.007-.01.019-.01.007a.036.036 0 01-.013.012l-.023.03-.012-.01a.213.213 0 01-.037-.069.705.705 0 01-.032-.23.47.47 0 01.008-.07z" fill="#A00"/><path d="M88.726 84.513a1.075 1.075 0 00-.094-.025c-.092-.023-.207-.037-.359-.06-.546-.086-.686-.064-1.036.196-.434.322-.545.564-.39.817.125.206-.009 1.066-.174 1.12-.27.089-.32.81-.082 1.168.127.19.358.378.518.416.333.079 1.285.038 1.707-.072a2.35 2.35 0 01.693-.03c.534.058.634-.007.82-.552.2-.58-.038-1.3-.575-1.727a2.733 2.733 0 01-.617-.773c-.146-.295-.212-.41-.411-.477z"/><path d="M362.6-141.94c.475.16.883.302 1.257.437 2.618.947 2.932 1.48 3.42 4.034.748 3.919.15 6.548-1.551 6.72-.72.074-1.422.478-1.55.952-.129.474.264.787.882.659s.34.11-.59.526c-2.257 1.012-2.388 1.936-.3 1.955 1.346.012 1.608.42 1.197 1.933-.299 1.1-.902 1.692-1.443 1.422-.513-.256-.986-.015-1.026.537-.04.562-1.393.905-3.085.77-2.333-.186-3.174-.614-3.643-1.835-.546-1.423-.724-1.413-1.662.262-.575 1.025-1.53 1.75-2.149 1.582-1.42-.385-2.055-2.225-.647-1.877.642.158.576-.188-.142-.917-1.584-1.605-.983-3.23 1.517-4.132 1.625-.585 1.938-1.03 1.393-1.98-.382-.669-.478-2.063-.203-3.078.276-1.015.202-2.812-.183-3.992-.65-1.992-.52-2.228 1.86-3.715 1.696-1.06 2.561-1.34 4.406-.907a25.45 25.45 0 012.242.644z" fill="url(#F)" transform="rotate(-1.637 3762.597 -1281.423) scale(.14072)"/><path d="M369.38-134.79a.479.479 0 01.145.05c.311.152.774.576 1.473 1.217 2.398 2.2 4.931 8.17 4.132 9.78-.329.661-1.502 1.535-2.582 1.893-1.73.574-2.138.391-3.437-1.411-1.725-2.394-.526-3.66 1.452-1.527.74.799 1.566 1.336 1.838 1.18.808-.463-1.638-6.026-3.06-6.942-.8-.516-1.11-1.61-.789-2.794.255-.94.398-1.409.715-1.431.04-.003.071-.02.113-.015z" fill="url(#G)" transform="rotate(-1.637 3762.597 -1281.423) scale(.14072)"/><path d="M3.097 83.102L1.786 48.353c-.424-5.763 6.03-12.988 15.298-13.12l36.276-.354c8.236-.064 11.56 5.798 11.992 11.566L65.235 77.3c.287 4.387-.525 7.989-2.164 12.061l-4.903 12.18 12.238-10.992c1.892-1.05 3.6 5.617-1.748 13.12l-12.675 12.765H.473c.811-3.95-.008-6.166 2.623-12.056l5.245-12.41c-2.722-2.692-4.495-5.64-5.245-8.865z" color="#000"/><path d="M48.925 17.397c0 9.332-7.565 16.897-16.897 16.897-9.331 0-16.897-7.565-16.897-16.897C15.131 8.065 22.696.5 32.028.5c9.332 0 16.897 7.565 16.897 16.897z"/><path d="M9.493 92.259l2.391-31.583c.796-8.322.4-13.52 7.885-13.647l23.971-.311c7.473-.027 8.135 8.424 8.715 14.044l4.398 40.87-1.233 14.06H1.846z" fill="#036" color="#000"/></svg>