<svg width="62" height="62" viewBox="0 0 62 62" fill="none" xmlns="http://www.w3.org/2000/svg">
<g clip-path="url(#clip0_21_67)">
<mask id="mask0_21_67" style="mask-type:luminance" maskUnits="userSpaceOnUse" x="0" y="0" width="62" height="62">
<path d="M62 0H0V62H62V0Z" fill="white"/>
</mask>
<g mask="url(#mask0_21_67)">
<path d="M49.3706 31.0002C49.3706 41.1525 41.1525 49.3706 31.0002 49.3706V31.0002H49.3706ZM31.0002 12.6299V31.0002H12.6299C12.6299 20.8479 20.8479 12.6299 31.0002 12.6299Z" fill="#0166B1"/>
<path d="M31.0002 12.6299C41.1525 12.6299 49.3706 20.8479 49.3706 31.0002H31.0002V12.6299ZM12.6299 31.0002H31.0002V49.3706C20.8479 49.3706 12.6299 41.1525 12.6299 31.0002Z" fill="white"/>
<path d="M31 12.6296V13.6368C40.5732 13.6368 48.3631 21.4251 48.3631 31H49.3704C49.3704 20.8549 41.1451 12.6296 31 12.6296ZM31 48.3631C21.4268 48.3631 13.6369 40.5749 13.6369 31H12.6296C12.6296 41.1451 20.8549 49.3704 31 49.3704M31 0C13.8796 0 0 13.8796 0 31C0 48.1203 13.8796 62 31 62C48.1203 62 62 48.1203 62 31C62 13.8796 48.1203 0 31 0ZM59.9842 31C59.9842 47.0067 47.0086 59.9842 31 59.9842C14.9915 59.9842 2.01587 47.0067 2.01587 31C2.01587 14.9933 14.9933 2.01587 31 2.01587C47.0067 2.01587 59.9842 14.9933 59.9842 31Z" fill="#6F6F6F"/>
<path d="M17.7528 16.0454C18.7435 15.0092 19.3043 13.812 18.3137 12.6691C17.7747 12.0488 16.8697 11.9132 16.1194 12.2188L16.0447 12.2477L16.0684 12.1826C16.1795 11.8878 16.2505 10.9475 15.4438 10.2982C15.0505 9.98176 14.557 9.86421 14.0581 9.91484C13.1275 10.0089 12.4119 10.64 10.4634 12.7975C9.87525 13.4485 9.01938 14.4757 8.50586 15.1412L13.8577 20.1832C15.6314 18.2337 16.3543 17.5085 17.7528 16.0454ZM10.7694 14.8121C11.8474 13.5028 12.9928 12.3146 13.5118 11.8444C13.6756 11.6962 13.8541 11.5479 14.0708 11.49C14.4223 11.3941 14.7846 11.6419 14.8666 12C14.9485 12.3598 14.7209 12.7017 14.4678 12.9838C13.8978 13.6221 11.8073 15.7941 11.8073 15.7941L10.7694 14.8121ZM12.8653 16.7869C12.8653 16.7869 14.9012 14.6493 15.5658 13.9658C15.8299 13.6945 15.9992 13.5299 16.1813 13.4413C16.4162 13.3274 16.673 13.3039 16.9024 13.4558C17.1282 13.6059 17.232 13.8645 17.1756 14.1213C17.1082 14.4269 16.8569 14.7181 16.6493 14.9405C16.3689 15.2389 13.9543 17.8051 13.9506 17.8087L12.8653 16.7869ZM31.6124 10.0324L33.3259 6.2202L33.4352 5.88203L33.4042 6.23466L33.5846 11.329C34.1854 11.3851 34.8064 11.4683 35.4182 11.5696L35.1396 4.02476C34.2838 3.93072 33.4315 3.8638 32.5794 3.82764L30.8913 7.98885L30.8312 8.29811L30.7711 7.98885L29.0849 3.82764C28.2326 3.8638 27.3805 3.93072 26.5245 4.02476L26.2459 11.5696C26.8578 11.4683 27.4786 11.3869 28.0796 11.329L28.2598 6.23466L28.2291 5.88203L28.3382 6.2202L30.0519 10.0324H31.6124ZM45.8435 17.919C46.264 18.3675 46.8704 19.0909 47.211 19.5303L53.4825 15.5771C53.1692 15.1702 52.6703 14.5517 52.297 14.1159L48.3253 16.7236L48.0542 16.9551L48.2563 16.6621L50.0099 13.1863L48.7696 11.9548L45.2679 13.6963L44.973 13.897L45.208 13.6276L47.8355 9.68517C47.373 9.29455 46.9287 8.93648 46.3624 8.50246L42.3818 14.7253C42.8861 15.1105 43.5507 15.6765 43.975 16.0617L47.7227 14.1303L47.963 13.9549L47.7863 14.1936L45.8435 17.919Z" fill="#6F6F6F"/>
</g>
</g>
<defs>
<clipPath id="clip0_21_67">
<rect width="62" height="62" fill="white"/>
</clipPath>
</defs>
</svg>
